<?xml version="1.0" encoding="utf-8"?>
<!-- Generator: Adobe Illustrator 22.0.1, SVG Export Plug-In . SVG Version: 6.00 Build 0)  -->
<svg version="1.1" id="Layer_1" xmlns="http://www.w3.org/2000/svg" xmlns:xlink="http://www.w3.org/1999/xlink" x="0px" y="0px"
	 viewBox="0 0 1024 1024" style="enable-background:new 0 0 1024 1024;" xml:space="preserve">
<style type="text/css">
	.st0{fill:#D0C3A4;}
	.st1{fill:#CDBC91;}
	.st2{fill:#24807B;}
	.st3{fill:#65A59F;}
	.st4{fill:#CCB889;}
	.st5{fill:#CAB37E;}
	.st6{fill:#128678;}
	.st7{fill:#61A19C;}
	.st8{fill:#006B68;}
	.st9{fill:#378983;}
	.st10{fill:#CEC09C;}
	.st11{fill:#C5A864;}
	.st12{fill:#318681;}
	.st13{fill:#BB963C;}
	.st14{fill:#579A95;}
	.st15{fill:#29837E;}
	.st16{fill:#C09E50;}
	.st17{fill:#CCB682;}
	.st18{fill:#BF9A40;}
	.st19{fill:#418F8A;}
	.st20{fill:#C8AD71;}
	.st21{fill:#C5AA6C;}
	.st22{fill:#C1A257;}
	.st23{fill:#BB9434;}
	.st24{fill:#529793;}
	.st25{fill:#C5A65E;}
	.st26{fill:#CFBE97;}
</style>
<g>
	<polygon class="st0" points="647.7,355.3 632.6,381.5 617.6,355.3 647.7,355.3 	"/>
	<polygon class="st1" points="617.6,303.1 602.5,329.2 587.4,303.1 617.6,303.1 	"/>
	<polygon class="st1" points="602.5,329.2 617.6,303.1 632.6,329.2 602.5,329.2 	"/>
	<polygon class="st2" points="708,303.1 693,329.2 677.9,303.1 708,303.1 	"/>
	<polygon class="st3" points="738.2,303.1 723.1,329.2 708,303.1 738.2,303.1 	"/>
	<polygon class="st3" points="693,329.2 708,303.1 723.1,329.2 693,329.2 	"/>
	<polygon class="st3" points="662.8,381.4 677.9,355.3 693,381.5 662.8,381.5 	"/>
	<polygon class="st3" points="723.1,329.2 708.1,355.3 693,329.2 723.1,329.2 	"/>
	<polygon class="st2" points="662.8,329.2 677.9,303.1 693,329.2 662.8,329.2 	"/>
	<polygon class="st2" points="662.8,277 647.7,303.1 632.6,277 662.8,277 	"/>
	<polygon class="st4" points="572.3,277 557.2,303.1 542.2,277 572.3,277 	"/>
	<polygon class="st2" points="693,277 677.9,303.1 662.8,277 693,277 	"/>
	<polygon class="st2" points="647.7,303.1 662.8,277 677.9,303.1 647.7,303.1 	"/>
	<polygon class="st2" points="617.6,303.1 632.6,277 647.7,303.1 617.6,303.1 	"/>
	<polygon class="st5" points="647.7,250.8 632.6,277 617.6,250.8 647.7,250.8 	"/>
	<polygon class="st4" points="557.2,250.8 542.2,277 527.1,250.8 557.2,250.8 	"/>
	<polygon class="st6" points="572.3,224.7 557.2,250.8 542.2,224.7 572.3,224.7 	"/>
	<polygon class="st7" points="421.5,224.7 406.4,250.8 391.4,224.7 421.5,224.7 	"/>
	<polygon class="st8" points="602.5,224.7 587.4,250.8 572.3,224.7 602.5,224.7 	"/>
	<polygon class="st9" points="632.6,224.7 617.6,250.8 602.5,224.7 632.6,224.7 	"/>
	<polygon class="st5" points="662.8,224.7 647.7,250.8 632.6,224.7 662.8,224.7 	"/>
	<polygon class="st10" points="632.6,277 647.7,250.8 662.8,277 632.7,277 	"/>
	<polygon class="st3" points="662.8,277 677.9,250.8 693,277 662.8,277 	"/>
	<polygon class="st5" points="602.5,277 617.6,250.8 632.6,277 602.5,277 	"/>
	<polygon class="st4" points="542.2,277 557.2,250.8 572.3,277 542.2,277 	"/>
	<polygon class="st6" points="527.1,250.8 542.2,224.7 557.2,250.8 527.1,250.8 	"/>
	<polygon class="st6" points="557.2,250.8 572.3,224.7 587.4,250.8 557.2,250.8 	"/>
	<polygon class="st11" points="572.3,224.7 587.4,198.6 602.5,224.7 572.3,224.7 	"/>
	<polygon class="st11" points="542.2,224.7 557.2,198.6 572.3,224.7 542.2,224.7 	"/>
	<polygon class="st12" points="527.1,198.6 542.2,172.5 557.2,198.6 527.1,198.6 	"/>
	<polygon class="st13" points="542.2,172.5 557.2,146.4 572.3,172.5 542.2,172.5 	"/>
	<polygon class="st14" points="451.7,172.5 466.8,146.4 481.8,172.5 451.7,172.5 	"/>
	<polygon class="st15" points="572.3,172.5 587.4,146.4 602.5,172.5 572.3,172.5 	"/>
	<polygon class="st16" points="602.5,172.5 617.6,146.4 632.6,172.5 602.5,172.5 	"/>
	<polygon class="st7" points="587.4,198.6 602.5,172.5 617.6,198.6 587.4,198.6 	"/>
	<polygon class="st17" points="617.6,198.6 632.6,172.5 647.7,198.6 617.6,198.6 	"/>
	<polygon class="st6" points="647.7,198.6 662.8,172.5 677.9,198.6 647.7,198.6 	"/>
	<polygon class="st18" points="496.9,198.6 512,172.5 527.1,198.6 496.9,198.6 	"/>
	<polygon class="st9" points="466.8,198.6 481.8,172.5 496.9,198.6 466.8,198.6 	"/>
	<polygon class="st3" points="436.6,198.6 451.7,172.5 466.8,198.6 436.6,198.6 	"/>
	<polygon class="st3" points="406.4,198.6 421.5,172.5 436.6,198.6 406.4,198.6 	"/>
	<polygon class="st10" points="346.1,198.6 361.2,172.5 376.3,198.6 346.1,198.6 	"/>
	<polygon class="st11" points="587.4,198.6 572.3,224.7 557.2,198.6 587.4,198.6 	"/>
	<polygon class="st10" points="391.4,224.7 406.4,198.6 421.5,224.7 391.4,224.7 	"/>
	<polygon class="st10" points="361.2,224.7 376.3,198.6 391.4,224.7 361.2,224.7 	"/>
	<polygon class="st10" points="406.4,198.6 391.4,224.7 376.3,198.6 406.4,198.6 	"/>
	<polygon class="st19" points="391.4,172.5 376.3,198.6 361.2,172.5 391.4,172.5 	"/>
	<polygon class="st3" points="421.5,172.5 406.4,198.6 391.4,172.5 421.5,172.5 	"/>
	<polygon class="st3" points="451.7,172.5 436.6,198.6 421.5,172.5 451.7,172.5 	"/>
	<polygon class="st18" points="542.2,172.5 527.1,198.6 512,172.5 542.2,172.5 	"/>
	<polygon class="st12" points="572.3,172.5 557.2,198.6 542.2,172.5 572.3,172.5 	"/>
	<polygon class="st20" points="602.5,172.5 587.4,198.6 572.3,172.5 602.5,172.5 	"/>
	<polygon class="st6" points="693,172.5 677.9,198.6 662.8,172.5 693,172.5 	"/>
	<polygon class="st21" points="677.9,198.6 693,172.5 708,198.6 677.9,198.6 	"/>
	<polygon class="st21" points="723.1,172.5 708.1,198.6 693,172.5 723.1,172.5 	"/>
	<polygon class="st22" points="753.3,172.5 738.2,198.6 723.1,172.5 753.3,172.5 	"/>
	<polygon class="st23" points="783.5,172.5 768.4,198.6 753.3,172.5 783.4,172.5 	"/>
	<polygon class="st12" points="753.3,172.5 768.4,146.4 783.5,172.5 753.3,172.5 	"/>
	<polygon class="st12" points="723.1,172.5 738.2,146.4 753.3,172.5 723.1,172.5 	"/>
	<polygon class="st21" points="693,172.5 708,146.4 723.1,172.5 693,172.5 	"/>
	<polygon class="st6" points="708,146.4 693,172.5 677.9,146.4 708,146.4 	"/>
	<polygon class="st17" points="677.9,146.4 662.8,172.5 647.7,146.4 677.9,146.4 	"/>
	<polygon class="st5" points="647.7,146.4 632.6,172.5 617.6,146.4 647.7,146.4 	"/>
	<polygon class="st24" points="617.6,146.4 602.5,172.5 587.4,146.4 617.6,146.4 	"/>
	<polygon class="st23" points="496.9,146.4 481.8,172.5 466.8,146.4 496.9,146.4 	"/>
	<polygon class="st21" points="421.5,172.5 436.6,146.4 451.7,172.5 421.5,172.5 	"/>
	<polygon class="st17" points="466.8,146.4 451.7,172.5 436.6,146.4 466.8,146.4 	"/>
	<polygon class="st21" points="391.4,172.5 406.4,146.4 421.5,172.5 391.4,172.5 	"/>
	<polygon class="st25" points="331,172.5 346.1,146.4 361.2,172.5 331,172.5 	"/>
	<polygon class="st25" points="300.9,172.5 316,146.4 331,172.5 300.9,172.5 	"/>
	<polygon class="st6" points="436.6,146.4 421.5,172.5 406.4,146.4 436.6,146.4 	"/>
	<polygon class="st21" points="406.4,146.4 391.4,172.5 376.3,146.4 406.4,146.4 	"/>
	<polygon class="st25" points="346.1,146.4 331,172.5 316,146.4 346.1,146.4 	"/>
	<polygon class="st3" points="285.8,198.6 300.9,172.5 316,198.6 285.8,198.6 	"/>
	<polygon class="st0" points="225.5,198.6 240.6,172.5 255.6,198.6 225.5,198.6 	"/>
	<polygon class="st10" points="331,172.5 316,198.6 300.9,172.5 331,172.5 	"/>
	<polygon class="st25" points="316,146.4 300.9,172.5 285.8,146.4 316,146.4 	"/>
	<polygon class="st3" points="285.8,146.4 270.7,172.5 255.6,146.4 285.8,146.4 	"/>
	<polygon class="st21" points="738.2,146.4 723.1,172.5 708,146.4 738.2,146.4 	"/>
	<polygon class="st12" points="768.4,146.4 753.3,172.5 738.2,146.4 768.4,146.4 	"/>
	<polygon class="st12" points="557.2,198.6 542.2,224.7 527.1,198.6 557.2,198.6 	"/>
	<polygon class="st9" points="602.5,224.7 617.6,198.6 632.6,224.7 602.5,224.7 	"/>
	<polygon class="st11" points="617.6,198.6 602.5,224.7 587.4,198.6 617.6,198.6 	"/>
	<polygon class="st18" points="481.8,224.7 496.9,198.6 512,224.7 481.8,224.7 	"/>
	<polygon class="st0" points="451.7,224.7 466.8,198.6 481.8,224.7 451.7,224.7 	"/>
	<polygon class="st20" points="466.8,198.6 451.7,224.7 436.6,198.6 466.8,198.6 	"/>
	<polygon class="st18" points="527.1,198.6 512,224.7 496.9,198.6 527.1,198.6 	"/>
	<polygon class="st18" points="632.6,224.7 647.7,198.6 662.8,224.7 632.7,224.7 	"/>
	<polygon class="st9" points="647.7,198.6 632.6,224.7 617.6,198.6 647.7,198.6 	"/>
	<polygon class="st18" points="662.8,224.7 677.9,198.6 693,224.7 662.8,224.7 	"/>
	<polygon class="st18" points="677.9,198.6 662.8,224.7 647.7,198.6 677.9,198.6 	"/>
	<polygon class="st18" points="708,198.6 693,224.7 677.9,198.6 708,198.6 	"/>
	<polygon class="st8" points="723.1,224.7 738.2,198.6 753.3,224.7 723.1,224.7 	"/>
	<polygon class="st8" points="738.2,198.6 723.1,224.7 708,198.6 738.2,198.6 	"/>
	<polygon class="st8" points="753.3,224.7 768.4,198.6 783.5,224.7 753.3,224.7 	"/>
	<polygon class="st8" points="768.4,198.6 753.3,224.7 738.2,198.6 768.4,198.6 	"/>
	<polygon class="st5" points="693,224.7 677.9,250.8 662.8,224.7 693,224.7 	"/>
	<polygon class="st25" points="723.1,224.7 708.1,250.8 693,224.7 723.1,224.7 	"/>
	<polygon class="st0" points="647.7,250.8 662.8,224.7 677.9,250.8 647.7,250.8 	"/>
	<polygon class="st8" points="677.9,250.8 693,224.7 708,250.8 677.9,250.8 	"/>
	<polygon class="st23" points="783.5,224.7 768.4,250.8 753.3,224.7 783.4,224.7 	"/>
	<polygon class="st23" points="738.2,250.8 753.3,224.7 768.4,250.8 738.2,250.8 	"/>
	<polygon class="st25" points="708,250.8 723.1,224.7 738.2,250.8 708.1,250.8 	"/>
	<polygon class="st4" points="527.1,250.8 512,277 496.9,250.8 527.1,250.8 	"/>
	<polygon class="st4" points="512,277 527.1,250.8 542.2,277 512,277 	"/>
	<polygon class="st3" points="496.9,303.1 512,277 527.1,303.1 496.9,303.1 	"/>
	<polygon class="st25" points="768.4,303.1 753.3,329.2 738.2,303.1 768.4,303.1 	"/>
	<polygon class="st6" points="753.3,329.2 768.4,303.1 783.5,329.2 753.3,329.2 	"/>
	<polygon class="st7" points="753.3,329.2 768.4,355.3 783.5,329.2 753.3,329.2 	"/>
	<polygon class="st26" points="768.4,355.3 753.3,329.2 738.2,355.3 768.4,355.3 	"/>
	<polygon class="st26" points="708,355.3 693,329.2 677.9,355.3 708,355.3 	"/>
	<polygon class="st25" points="753.3,277 768.4,303.1 783.5,277 753.3,277 	"/>
	<polygon class="st25" points="768.4,303.1 753.3,277 738.2,303.1 768.4,303.1 	"/>
	<polygon class="st26" points="738.2,250.8 723.1,277 708,250.8 738.2,250.8 	"/>
	<polygon class="st22" points="723.1,277 738.2,250.8 753.3,277 723.1,277 	"/>
	<polygon class="st12" points="768.4,250.8 753.3,277 738.2,250.8 768.4,250.8 	"/>
	<polygon class="st25" points="753.3,277 768.4,250.8 783.5,277 753.3,277 	"/>
	<polygon class="st25" points="723.1,329.2 738.2,303.1 753.3,329.2 723.1,329.2 	"/>
	<polygon class="st7" points="662.8,329.2 647.7,355.3 632.6,329.2 662.8,329.2 	"/>
	<polygon class="st8" points="782.9,172.5 767.9,146.4 752.8,172.5 782.9,172.5 	"/>
	<polygon class="st8" points="767.9,146.4 782.9,172.5 798,146.4 767.9,146.4 	"/>
	<polygon class="st23" points="752.8,172.5 767.9,198.6 782.9,172.5 752.8,172.5 	"/>
	<polygon class="st23" points="798,198.6 782.9,172.5 767.9,198.6 798,198.6 	"/>
	<polygon class="st25" points="767.9,250.8 782.9,277 798,250.8 767.9,250.8 	"/>
	<polygon class="st6" points="782.9,277 767.9,250.8 752.8,277 782.9,277 	"/>
	<polygon class="st7" points="782.9,277 767.9,303.1 752.8,277 782.9,277 	"/>
	<polygon class="st26" points="767.9,303.1 782.9,277 798,303.1 767.9,303.1 	"/>
	<polygon class="st25" points="782.9,224.7 767.9,250.8 752.8,224.7 782.9,224.7 	"/>
	<polygon class="st25" points="767.9,250.8 782.9,224.7 798,250.8 767.9,250.8 	"/>
	<polygon class="st12" points="767.9,198.6 782.9,224.7 798,198.6 767.9,198.6 	"/>
	<polygon class="st25" points="782.9,224.7 767.9,198.6 752.8,224.7 782.9,224.7 	"/>
	<polygon class="st22" points="753.3,329.2 768.4,355.3 783.4,329.2 753.3,329.2 	"/>
	<polygon class="st23" points="723.1,329.2 738.2,355.3 753.3,329.2 723.1,329.2 	"/>
	<polygon class="st12" points="753.3,329.2 738.2,303.1 723.1,329.2 753.3,329.2 	"/>
	<polygon class="st12" points="783.4,329.2 768.4,303.1 753.3,329.2 783.4,329.2 	"/>
	<polygon class="st21" points="768.4,303.1 783.4,329.2 798.5,303.1 768.4,303.1 	"/>
	<polygon class="st12" points="738.2,303.1 753.3,329.2 768.4,303.1 738.2,303.1 	"/>
	<polygon class="st8" points="783.4,381.4 768.4,355.3 753.3,381.5 783.4,381.5 	"/>
	<polygon class="st8" points="768.4,355.3 783.4,381.5 798.5,355.3 768.4,355.3 	"/>
	<polygon class="st8" points="753.3,381.4 738.2,355.3 723.1,381.5 753.3,381.5 	"/>
	<polygon class="st8" points="738.2,355.3 753.3,381.5 768.4,355.3 738.2,355.3 	"/>
	<polygon class="st23" points="723.1,381.5 738.2,407.6 753.3,381.5 723.1,381.5 	"/>
	<polygon class="st23" points="768.4,407.6 753.3,381.5 738.2,407.6 768.4,407.6 	"/>
	<polygon class="st25" points="798.5,407.6 783.4,381.5 768.4,407.6 798.5,407.6 	"/>
	<polygon class="st25" points="738.2,459.8 753.3,485.9 768.4,459.8 738.2,459.8 	"/>
	<polygon class="st6" points="753.3,485.9 738.2,459.8 723.1,485.9 753.3,485.9 	"/>
	<polygon class="st7" points="753.3,485.9 738.2,512.1 723.1,485.9 753.3,485.9 	"/>
	<polygon class="st26" points="738.2,512.1 753.3,485.9 768.4,512.1 738.2,512.1 	"/>
	<polygon class="st26" points="768.4,512.1 753.3,538.2 738.2,512.1 768.4,512.1 	"/>
	<polygon class="st25" points="753.3,433.7 738.2,459.8 723.1,433.7 753.3,433.7 	"/>
	<polygon class="st25" points="738.2,459.8 753.3,433.7 768.4,459.8 738.2,459.8 	"/>
	<polygon class="st26" points="768.4,407.6 783.4,433.7 798.5,407.6 768.4,407.6 	"/>
	<polygon class="st22" points="783.4,433.7 768.4,407.6 753.3,433.7 783.4,433.7 	"/>
	<polygon class="st12" points="738.2,407.6 753.3,433.7 768.4,407.6 738.2,407.6 	"/>
	<polygon class="st25" points="753.3,433.7 738.2,407.6 723.1,433.7 753.3,433.7 	"/>
</g>
</svg>
