<svg id="visual" viewBox="0 0 900 600" width="900" height="600" xmlns="http://www.w3.org/2000/svg" xmlns:xlink="http://www.w3.org/1999/xlink" version="1.1"><rect x="0" y="0" width="900" height="600" fill="#fff"></rect><path d="M0 380L21.5 387C43 394 86 408 128.8 421.3C171.7 434.7 214.3 447.3 257.2 453.7C300 460 343 460 385.8 448C428.7 436 471.3 412 514.2 416.2C557 420.3 600 452.7 642.8 446.2C685.7 439.7 728.3 394.3 771.2 394.2C814 394 857 439 878.5 461.5L900 484L900 601L878.5 601C857 601 814 601 771.2 601C728.3 601 685.7 601 642.8 601C600 601 557 601 514.2 601C471.3 601 428.7 601 385.8 601C343 601 300 601 257.2 601C214.3 601 171.7 601 128.8 601C86 601 43 601 21.5 601L0 601Z" fill="#d5e7e5" stroke-linecap="round" stroke-linejoin="miter"></path></svg>