<svg xmlns="http://www.w3.org/2000/svg" xmlns:xlink="http://www.w3.org/1999/xlink" width="1920" zoomAndPan="magnify" viewBox="0 0 1440 809.999993" height="1080" preserveAspectRatio="xMidYMid meet" version="1.0"><defs><clipPath id="38ef3908f8"><path d="M 61.785156 666.464844 L 126.058594 666.464844 L 126.058594 722.621094 L 61.785156 722.621094 Z M 61.785156 666.464844 " clip-rule="nonzero"/></clipPath><clipPath id="d1ca3fba72"><path d="M 93.96875 666.464844 L 61.878906 722.621094 L 126.058594 722.621094 Z M 93.96875 666.464844 " clip-rule="nonzero"/></clipPath><clipPath id="9b793af176"><path d="M 61.886719 722.625 L 126.160156 722.625 L 126.160156 778.78125 L 61.886719 778.78125 Z M 61.886719 722.625 " clip-rule="nonzero"/></clipPath><clipPath id="e5551b4984"><path d="M 93.976562 778.78125 L 126.066406 722.625 L 61.886719 722.625 Z M 93.976562 778.78125 " clip-rule="nonzero"/></clipPath><clipPath id="18d95f3851"><path d="M 29.695312 722.953125 L 93.96875 722.953125 L 93.96875 779.113281 L 29.695312 779.113281 Z M 29.695312 722.953125 " clip-rule="nonzero"/></clipPath><clipPath id="7cd66543ee"><path d="M 61.878906 722.953125 L 29.789062 779.113281 L 93.96875 779.113281 Z M 61.878906 722.953125 " clip-rule="nonzero"/></clipPath><clipPath id="894f9bb255"><path d="M 93.976562 666.464844 L 158.25 666.464844 L 158.25 722.625 L 93.976562 722.625 Z M 93.976562 666.464844 " clip-rule="nonzero"/></clipPath><clipPath id="0de530b35a"><path d="M 126.066406 722.625 L 158.15625 666.464844 L 93.976562 666.464844 Z M 126.066406 722.625 " clip-rule="nonzero"/></clipPath><clipPath id="479d9f1e4f"><path d="M 29.519531 667.316406 L 93.792969 667.316406 L 93.792969 723.472656 L 29.519531 723.472656 Z M 29.519531 667.316406 " clip-rule="nonzero"/></clipPath><clipPath id="ca92079bfd"><path d="M 61.609375 723.472656 L 93.699219 667.316406 L 29.519531 667.316406 Z M 61.609375 723.472656 " clip-rule="nonzero"/></clipPath><clipPath id="e5769c4d2d"><path d="M 93.875 722.621094 L 158.148438 722.621094 L 158.148438 778.78125 L 93.875 778.78125 Z M 93.875 722.621094 " clip-rule="nonzero"/></clipPath><clipPath id="87fe072de2"><path d="M 126.058594 722.621094 L 93.96875 778.78125 L 158.148438 778.78125 Z M 126.058594 722.621094 " clip-rule="nonzero"/></clipPath><clipPath id="60ce3c9b1b"><path d="M 125.699219 723.472656 L 189.972656 723.472656 L 189.972656 779.628906 L 125.699219 779.628906 Z M 125.699219 723.472656 " clip-rule="nonzero"/></clipPath><clipPath id="1c945dc8b4"><path d="M 157.789062 779.628906 L 189.878906 723.472656 L 125.699219 723.472656 Z M 157.789062 779.628906 " clip-rule="nonzero"/></clipPath><clipPath id="25544e6119"><path d="M 189.777344 666.464844 L 254.050781 666.464844 L 254.050781 722.621094 L 189.777344 722.621094 Z M 189.777344 666.464844 " clip-rule="nonzero"/></clipPath><clipPath id="b7e83c3c29"><path d="M 221.960938 666.464844 L 189.871094 722.621094 L 254.050781 722.621094 Z M 221.960938 666.464844 " clip-rule="nonzero"/></clipPath><clipPath id="53cbbb3735"><path d="M 157.6875 722.621094 L 221.960938 722.621094 L 221.960938 778.78125 L 157.6875 778.78125 Z M 157.6875 722.621094 " clip-rule="nonzero"/></clipPath><clipPath id="2668a45c4a"><path d="M 189.871094 722.621094 L 157.78125 778.78125 L 221.960938 778.78125 Z M 189.871094 722.621094 " clip-rule="nonzero"/></clipPath><clipPath id="5dcb67efa7"><path d="M 222.21875 722.621094 L 286.492188 722.621094 L 286.492188 778.78125 L 222.21875 778.78125 Z M 222.21875 722.621094 " clip-rule="nonzero"/></clipPath><clipPath id="d305451bb0"><path d="M 254.402344 722.621094 L 222.3125 778.78125 L 286.492188 778.78125 Z M 254.402344 722.621094 " clip-rule="nonzero"/></clipPath><clipPath id="af3db49c0c"><path d="M 157.789062 666.464844 L 222 666.464844 L 222 722.625 L 157.789062 722.625 Z M 157.789062 666.464844 " clip-rule="nonzero"/></clipPath><clipPath id="aef27e1ed4"><path d="M 189.878906 722.625 L 221.96875 666.464844 L 157.789062 666.464844 Z M 189.878906 722.625 " clip-rule="nonzero"/></clipPath><clipPath id="1bea911f45"><path d="M 287.023438 723.804688 L 351.300781 723.804688 L 351.300781 779.960938 L 287.023438 779.960938 Z M 287.023438 723.804688 " clip-rule="nonzero"/></clipPath><clipPath id="76b41bec2d"><path d="M 319.210938 723.804688 L 287.121094 779.960938 L 351.300781 779.960938 Z M 319.210938 723.804688 " clip-rule="nonzero"/></clipPath><clipPath id="6a3344bb3a"><path d="M 383.03125 724.324219 L 447.304688 724.324219 L 447.304688 780.480469 L 383.03125 780.480469 Z M 383.03125 724.324219 " clip-rule="nonzero"/></clipPath><clipPath id="3bd54f590b"><path d="M 415.121094 780.480469 L 447.210938 724.324219 L 383.03125 724.324219 Z M 415.121094 780.480469 " clip-rule="nonzero"/></clipPath><clipPath id="2ea8aacd21"><path d="M 447.109375 667.316406 L 511.382812 667.316406 L 511.382812 723.472656 L 447.109375 723.472656 Z M 447.109375 667.316406 " clip-rule="nonzero"/></clipPath><clipPath id="0e6fd25754"><path d="M 479.292969 667.316406 L 447.203125 723.472656 L 511.382812 723.472656 Z M 479.292969 667.316406 " clip-rule="nonzero"/></clipPath><clipPath id="6a66174a3c"><path d="M 415.019531 723.472656 L 479.292969 723.472656 L 479.292969 779.628906 L 415.019531 779.628906 Z M 415.019531 723.472656 " clip-rule="nonzero"/></clipPath><clipPath id="ef369ccf12"><path d="M 447.203125 723.472656 L 415.113281 779.628906 L 479.292969 779.628906 Z M 447.203125 723.472656 " clip-rule="nonzero"/></clipPath><clipPath id="2c1279e280"><path d="M 479.546875 723.472656 L 543.824219 723.472656 L 543.824219 779.628906 L 479.546875 779.628906 Z M 479.546875 723.472656 " clip-rule="nonzero"/></clipPath><clipPath id="106a41d62e"><path d="M 511.730469 723.472656 L 479.640625 779.628906 L 543.824219 779.628906 Z M 511.730469 723.472656 " clip-rule="nonzero"/></clipPath><clipPath id="8f590e9d16"><path d="M 415.121094 667.316406 L 479.394531 667.316406 L 479.394531 723.472656 L 415.121094 723.472656 Z M 415.121094 667.316406 " clip-rule="nonzero"/></clipPath><clipPath id="bb412d0b24"><path d="M 447.210938 723.472656 L 479.300781 667.316406 L 415.121094 667.316406 Z M 447.210938 723.472656 " clip-rule="nonzero"/></clipPath><clipPath id="eb53e1b759"><path d="M 540.636719 723.238281 L 604.910156 723.238281 L 604.910156 779.394531 L 540.636719 779.394531 Z M 540.636719 723.238281 " clip-rule="nonzero"/></clipPath><clipPath id="8e7433cc51"><path d="M 572.820312 723.238281 L 540.730469 779.394531 L 604.910156 779.394531 Z M 572.820312 723.238281 " clip-rule="nonzero"/></clipPath><clipPath id="5ba2f5ab6e"><path d="M 62.589844 611.507812 L 126.863281 611.507812 L 126.863281 667.667969 L 62.589844 667.667969 Z M 62.589844 611.507812 " clip-rule="nonzero"/></clipPath><clipPath id="56b6366602"><path d="M 94.679688 667.667969 L 126.769531 611.507812 L 62.589844 611.507812 Z M 94.679688 667.667969 " clip-rule="nonzero"/></clipPath><clipPath id="e12e049916"><path d="M 126.402344 612.359375 L 190.675781 612.359375 L 190.675781 668.515625 L 126.402344 668.515625 Z M 126.402344 612.359375 " clip-rule="nonzero"/></clipPath><clipPath id="34360b2196"><path d="M 158.492188 668.515625 L 190.582031 612.359375 L 126.402344 612.359375 Z M 158.492188 668.515625 " clip-rule="nonzero"/></clipPath><clipPath id="d3079e5b0f"><path d="M 94.679688 555.351562 L 158.953125 555.351562 L 158.953125 611.507812 L 94.679688 611.507812 Z M 94.679688 555.351562 " clip-rule="nonzero"/></clipPath><clipPath id="aedd590a24"><path d="M 126.769531 611.507812 L 158.859375 555.351562 L 94.679688 555.351562 Z M 126.769531 611.507812 " clip-rule="nonzero"/></clipPath><clipPath id="a7f64914ee"><path d="M 319.113281 667.316406 L 383.390625 667.316406 L 383.390625 723.472656 L 319.113281 723.472656 Z M 319.113281 667.316406 " clip-rule="nonzero"/></clipPath><clipPath id="1def2c3936"><path d="M 351.300781 667.316406 L 319.210938 723.472656 L 383.390625 723.472656 Z M 351.300781 667.316406 " clip-rule="nonzero"/></clipPath><clipPath id="d979ca333f"><path d="M 140.070312 500.28125 L 204.34375 500.28125 L 204.34375 556.441406 L 140.070312 556.441406 Z M 140.070312 500.28125 " clip-rule="nonzero"/></clipPath><clipPath id="752dbe56e1"><path d="M 172.160156 556.441406 L 204.25 500.28125 L 140.070312 500.28125 Z M 172.160156 556.441406 " clip-rule="nonzero"/></clipPath><clipPath id="bc566ed23d"><path d="M 351.207031 723.472656 L 415.480469 723.472656 L 415.480469 779.628906 L 351.207031 779.628906 Z M 351.207031 723.472656 " clip-rule="nonzero"/></clipPath><clipPath id="5a71e8d99d"><path d="M 383.390625 723.472656 L 351.300781 779.628906 L 415.480469 779.628906 Z M 383.390625 723.472656 " clip-rule="nonzero"/></clipPath><clipPath id="cf9f269ff9"><path d="M 637.183594 666.464844 L 701.457031 666.464844 L 701.457031 722.621094 L 637.183594 722.621094 Z M 637.183594 666.464844 " clip-rule="nonzero"/></clipPath><clipPath id="94460a5f25"><path d="M 669.367188 666.464844 L 637.277344 722.621094 L 701.457031 722.621094 Z M 669.367188 666.464844 " clip-rule="nonzero"/></clipPath><clipPath id="b8deaacad3"><path d="M 637.285156 722.625 L 701.558594 722.625 L 701.558594 778.78125 L 637.285156 778.78125 Z M 637.285156 722.625 " clip-rule="nonzero"/></clipPath><clipPath id="9599bef6be"><path d="M 669.375 778.78125 L 701.464844 722.625 L 637.285156 722.625 Z M 669.375 778.78125 " clip-rule="nonzero"/></clipPath><clipPath id="b286e76e1c"><path d="M 605.09375 722.953125 L 669.367188 722.953125 L 669.367188 779.113281 L 605.09375 779.113281 Z M 605.09375 722.953125 " clip-rule="nonzero"/></clipPath><clipPath id="bddb21e4fd"><path d="M 637.277344 722.953125 L 605.1875 779.113281 L 669.367188 779.113281 Z M 637.277344 722.953125 " clip-rule="nonzero"/></clipPath><clipPath id="5c6cd72a24"><path d="M 604.917969 667.316406 L 669.191406 667.316406 L 669.191406 723.472656 L 604.917969 723.472656 Z M 604.917969 667.316406 " clip-rule="nonzero"/></clipPath><clipPath id="c52d622cf4"><path d="M 637.007812 723.472656 L 669.097656 667.316406 L 604.917969 667.316406 Z M 637.007812 723.472656 " clip-rule="nonzero"/></clipPath><clipPath id="2fbcf63319"><path d="M 669.273438 722.621094 L 733.546875 722.621094 L 733.546875 778.78125 L 669.273438 778.78125 Z M 669.273438 722.621094 " clip-rule="nonzero"/></clipPath><clipPath id="f27ddaa757"><path d="M 701.457031 722.621094 L 669.367188 778.78125 L 733.546875 778.78125 Z M 701.457031 722.621094 " clip-rule="nonzero"/></clipPath><clipPath id="a7337af537"><path d="M 701.097656 723.472656 L 765.371094 723.472656 L 765.371094 779.628906 L 701.097656 779.628906 Z M 701.097656 723.472656 " clip-rule="nonzero"/></clipPath><clipPath id="552a406774"><path d="M 733.1875 779.628906 L 765.277344 723.472656 L 701.097656 723.472656 Z M 733.1875 779.628906 " clip-rule="nonzero"/></clipPath><clipPath id="529cdf322a"><path d="M 765.175781 666.464844 L 829.449219 666.464844 L 829.449219 722.621094 L 765.175781 722.621094 Z M 765.175781 666.464844 " clip-rule="nonzero"/></clipPath><clipPath id="d5996b0e03"><path d="M 797.359375 666.464844 L 765.269531 722.621094 L 829.449219 722.621094 Z M 797.359375 666.464844 " clip-rule="nonzero"/></clipPath><clipPath id="29730519da"><path d="M 733.085938 722.621094 L 797.359375 722.621094 L 797.359375 778.78125 L 733.085938 778.78125 Z M 733.085938 722.621094 " clip-rule="nonzero"/></clipPath><clipPath id="0fb0bb6662"><path d="M 765.269531 722.621094 L 733.179688 778.78125 L 797.359375 778.78125 Z M 765.269531 722.621094 " clip-rule="nonzero"/></clipPath><clipPath id="cbb78b5798"><path d="M 797.617188 722.621094 L 861.890625 722.621094 L 861.890625 778.78125 L 797.617188 778.78125 Z M 797.617188 722.621094 " clip-rule="nonzero"/></clipPath><clipPath id="f792f93f78"><path d="M 829.800781 722.621094 L 797.710938 778.78125 L 861.890625 778.78125 Z M 829.800781 722.621094 " clip-rule="nonzero"/></clipPath><clipPath id="2f633d82a0"><path d="M 733.1875 666.464844 L 797.460938 666.464844 L 797.460938 722.625 L 733.1875 722.625 Z M 733.1875 666.464844 " clip-rule="nonzero"/></clipPath><clipPath id="aabb07a4f1"><path d="M 765.277344 722.625 L 797.367188 666.464844 L 733.1875 666.464844 Z M 765.277344 722.625 " clip-rule="nonzero"/></clipPath><clipPath id="02ffbec1ad"><path d="M 862.421875 723.804688 L 926.699219 723.804688 L 926.699219 779.960938 L 862.421875 779.960938 Z M 862.421875 723.804688 " clip-rule="nonzero"/></clipPath><clipPath id="8141d1c037"><path d="M 894.609375 723.804688 L 862.519531 779.960938 L 926.699219 779.960938 Z M 894.609375 723.804688 " clip-rule="nonzero"/></clipPath><clipPath id="05e469172f"><path d="M 958.429688 724.324219 L 1022.703125 724.324219 L 1022.703125 780.480469 L 958.429688 780.480469 Z M 958.429688 724.324219 " clip-rule="nonzero"/></clipPath><clipPath id="543f0335e6"><path d="M 990.519531 780.480469 L 1022.609375 724.324219 L 958.429688 724.324219 Z M 990.519531 780.480469 " clip-rule="nonzero"/></clipPath><clipPath id="5773bf0212"><path d="M 1053.875 610.308594 L 1118.152344 610.308594 L 1118.152344 666.464844 L 1053.875 666.464844 Z M 1053.875 610.308594 " clip-rule="nonzero"/></clipPath><clipPath id="72f2c4c786"><path d="M 1086.0625 610.308594 L 1053.972656 666.464844 L 1118.152344 666.464844 Z M 1086.0625 610.308594 " clip-rule="nonzero"/></clipPath><clipPath id="f57cd7f53f"><path d="M 1055 723.472656 L 1119.222656 723.472656 L 1119.222656 779.628906 L 1055 779.628906 Z M 1055 723.472656 " clip-rule="nonzero"/></clipPath><clipPath id="343f7e1d54"><path d="M 1087.128906 723.472656 L 1055.039062 779.628906 L 1119.222656 779.628906 Z M 1087.128906 723.472656 " clip-rule="nonzero"/></clipPath><clipPath id="4cd916b217"><path d="M 990.519531 667.316406 L 1054.792969 667.316406 L 1054.792969 723.472656 L 990.519531 723.472656 Z M 990.519531 667.316406 " clip-rule="nonzero"/></clipPath><clipPath id="61e178798c"><path d="M 1022.609375 723.472656 L 1054.699219 667.316406 L 990.519531 667.316406 Z M 1022.609375 723.472656 " clip-rule="nonzero"/></clipPath><clipPath id="1753e346ff"><path d="M 1116.035156 723.238281 L 1180.308594 723.238281 L 1180.308594 779.394531 L 1116.035156 779.394531 Z M 1116.035156 723.238281 " clip-rule="nonzero"/></clipPath><clipPath id="f91bb4aa8e"><path d="M 1148.21875 723.238281 L 1116.128906 779.394531 L 1180.308594 779.394531 Z M 1148.21875 723.238281 " clip-rule="nonzero"/></clipPath><clipPath id="b2417467ee"><path d="M 637.988281 611.507812 L 702.261719 611.507812 L 702.261719 667.667969 L 637.988281 667.667969 Z M 637.988281 611.507812 " clip-rule="nonzero"/></clipPath><clipPath id="ec34241833"><path d="M 670.078125 667.667969 L 702.167969 611.507812 L 637.988281 611.507812 Z M 670.078125 667.667969 " clip-rule="nonzero"/></clipPath><clipPath id="cd180529ed"><path d="M 701.800781 612.359375 L 766 612.359375 L 766 668.515625 L 701.800781 668.515625 Z M 701.800781 612.359375 " clip-rule="nonzero"/></clipPath><clipPath id="cbd24acab2"><path d="M 733.890625 668.515625 L 765.980469 612.359375 L 701.800781 612.359375 Z M 733.890625 668.515625 " clip-rule="nonzero"/></clipPath><clipPath id="9f57c5a9f0"><path d="M 894.511719 667.316406 L 958.789062 667.316406 L 958.789062 723.472656 L 894.511719 723.472656 Z M 894.511719 667.316406 " clip-rule="nonzero"/></clipPath><clipPath id="9ea119c6c3"><path d="M 926.699219 667.316406 L 894.609375 723.472656 L 958.789062 723.472656 Z M 926.699219 667.316406 " clip-rule="nonzero"/></clipPath><clipPath id="e38fdb9590"><path d="M 671.472656 555.882812 L 735.746094 555.882812 L 735.746094 612.039062 L 671.472656 612.039062 Z M 671.472656 555.882812 " clip-rule="nonzero"/></clipPath><clipPath id="44e54defad"><path d="M 703.5625 612.039062 L 735.652344 555.882812 L 671.472656 555.882812 Z M 703.5625 612.039062 " clip-rule="nonzero"/></clipPath><clipPath id="b1fc7e91ef"><path d="M 190.476562 555.769531 L 254.753906 555.769531 L 254.753906 611.925781 L 190.476562 611.925781 Z M 190.476562 555.769531 " clip-rule="nonzero"/></clipPath><clipPath id="14c1c473ca"><path d="M 222.664062 555.769531 L 190.574219 611.925781 L 254.753906 611.925781 Z M 222.664062 555.769531 " clip-rule="nonzero"/></clipPath><clipPath id="a97d99dc96"><path d="M 287.726562 500.460938 L 352 500.460938 L 352 556.617188 L 287.726562 556.617188 Z M 287.726562 500.460938 " clip-rule="nonzero"/></clipPath><clipPath id="45270d1495"><path d="M 319.910156 500.460938 L 287.820312 556.617188 L 352 556.617188 Z M 319.910156 500.460938 " clip-rule="nonzero"/></clipPath><clipPath id="fbfe06563e"><path d="M 255.636719 556.949219 L 319.910156 556.949219 L 319.910156 613.109375 L 255.636719 613.109375 Z M 255.636719 556.949219 " clip-rule="nonzero"/></clipPath><clipPath id="31d9b9ee3c"><path d="M 287.820312 556.949219 L 255.730469 613.109375 L 319.910156 613.109375 Z M 287.820312 556.949219 " clip-rule="nonzero"/></clipPath><clipPath id="640a0c78d1"><path d="M 383.03125 445.390625 L 447.304688 445.390625 L 447.304688 501.550781 L 383.03125 501.550781 Z M 383.03125 445.390625 " clip-rule="nonzero"/></clipPath><clipPath id="c08527f1d0"><path d="M 415.121094 501.550781 L 447.210938 445.390625 L 383.03125 445.390625 Z M 415.121094 501.550781 " clip-rule="nonzero"/></clipPath><clipPath id="c1f40e14db"><path d="M 479.898438 500.460938 L 544.171875 500.460938 L 544.171875 556.617188 L 479.898438 556.617188 Z M 479.898438 500.460938 " clip-rule="nonzero"/></clipPath><clipPath id="5d4b64dee2"><path d="M 512.082031 500.460938 L 479.992188 556.617188 L 544.171875 556.617188 Z M 512.082031 500.460938 " clip-rule="nonzero"/></clipPath><clipPath id="79fd074629"><path d="M 574.175781 556.101562 L 638.453125 556.101562 L 638.453125 612.257812 L 574.175781 612.257812 Z M 574.175781 556.101562 " clip-rule="nonzero"/></clipPath><clipPath id="99d452103b"><path d="M 606.363281 556.101562 L 574.273438 612.257812 L 638.453125 612.257812 Z M 606.363281 556.101562 " clip-rule="nonzero"/></clipPath><clipPath id="99868e9771"><path d="M 545.332031 444.304688 L 609.605469 444.304688 L 609.605469 500.460938 L 545.332031 500.460938 Z M 545.332031 444.304688 " clip-rule="nonzero"/></clipPath><clipPath id="1f11fa2bf7"><path d="M 577.421875 500.460938 L 609.511719 444.304688 L 545.332031 444.304688 Z M 577.421875 500.460938 " clip-rule="nonzero"/></clipPath><clipPath id="967b3f0a9b"><path d="M 287.726562 445.039062 L 352 445.039062 L 352 501.199219 L 287.726562 501.199219 Z M 287.726562 445.039062 " clip-rule="nonzero"/></clipPath><clipPath id="196d0b53c1"><path d="M 319.910156 445.039062 L 287.820312 501.199219 L 352 501.199219 Z M 319.910156 445.039062 " clip-rule="nonzero"/></clipPath><clipPath id="9a0847764a"><path d="M 352.710938 554.570312 L 416.984375 554.570312 L 416.984375 610.726562 L 352.710938 610.726562 Z M 352.710938 554.570312 " clip-rule="nonzero"/></clipPath><clipPath id="48b6b6d864"><path d="M 384.800781 610.726562 L 416.890625 554.570312 L 352.710938 554.570312 Z M 384.800781 610.726562 " clip-rule="nonzero"/></clipPath><clipPath id="f355cafa28"><path d="M 482.8125 387.578125 L 547 387.578125 L 547 443.734375 L 482.8125 443.734375 Z M 482.8125 387.578125 " clip-rule="nonzero"/></clipPath><clipPath id="935feb1d36"><path d="M 514.902344 443.734375 L 546.992188 387.578125 L 482.8125 387.578125 Z M 514.902344 443.734375 " clip-rule="nonzero"/></clipPath><clipPath id="739997cfd1"><path d="M 287.828125 389.972656 L 352.101562 389.972656 L 352.101562 446.128906 L 287.828125 446.128906 Z M 287.828125 389.972656 " clip-rule="nonzero"/></clipPath><clipPath id="ad60d63a48"><path d="M 319.917969 446.128906 L 352.007812 389.972656 L 287.828125 389.972656 Z M 319.917969 446.128906 " clip-rule="nonzero"/></clipPath><clipPath id="5272742788"><path d="M 352.007812 276.808594 L 416.28125 276.808594 L 416.28125 332.964844 L 352.007812 332.964844 Z M 352.007812 276.808594 " clip-rule="nonzero"/></clipPath><clipPath id="0a8273f46a"><path d="M 384.097656 332.964844 L 416.1875 276.808594 L 352.007812 276.808594 Z M 384.097656 332.964844 " clip-rule="nonzero"/></clipPath><clipPath id="86508af452"><path d="M 447.808594 276.804688 L 512.082031 276.804688 L 512.082031 332.964844 L 447.808594 332.964844 Z M 447.808594 276.804688 " clip-rule="nonzero"/></clipPath><clipPath id="44233115ea"><path d="M 479.992188 276.804688 L 447.902344 332.964844 L 512.082031 332.964844 Z M 479.992188 276.804688 " clip-rule="nonzero"/></clipPath><clipPath id="fe6546f6b8"><path d="M 415.71875 332.964844 L 479.992188 332.964844 L 479.992188 389.121094 L 415.71875 389.121094 Z M 415.71875 332.964844 " clip-rule="nonzero"/></clipPath><clipPath id="b20f60164f"><path d="M 447.902344 332.964844 L 415.8125 389.121094 L 479.992188 389.121094 Z M 447.902344 332.964844 " clip-rule="nonzero"/></clipPath><clipPath id="88dbb8831a"><path d="M 763.335938 333.8125 L 827.609375 333.8125 L 827.609375 389.972656 L 763.335938 389.972656 Z M 763.335938 333.8125 " clip-rule="nonzero"/></clipPath><clipPath id="df1e077225"><path d="M 795.519531 333.8125 L 763.429688 389.972656 L 827.609375 389.972656 Z M 795.519531 333.8125 " clip-rule="nonzero"/></clipPath><clipPath id="034ab2cd07"><path d="M 698.90625 277.65625 L 763.179688 277.65625 L 763.179688 333.816406 L 698.90625 333.816406 Z M 698.90625 277.65625 " clip-rule="nonzero"/></clipPath><clipPath id="427b0c32ff"><path d="M 730.996094 333.816406 L 763.085938 277.65625 L 698.90625 277.65625 Z M 730.996094 333.816406 " clip-rule="nonzero"/></clipPath><clipPath id="b989e03cae"><path d="M 828.074219 275.261719 L 892.347656 275.261719 L 892.347656 331.421875 L 828.074219 331.421875 Z M 828.074219 275.261719 " clip-rule="nonzero"/></clipPath><clipPath id="31c44c8d5a"><path d="M 860.257812 275.261719 L 828.167969 331.421875 L 892.347656 331.421875 Z M 860.257812 275.261719 " clip-rule="nonzero"/></clipPath><clipPath id="5141a424fd"><path d="M 577.148438 277.65625 L 641.421875 277.65625 L 641.421875 333.8125 L 577.148438 333.8125 Z M 577.148438 277.65625 " clip-rule="nonzero"/></clipPath><clipPath id="f9c480da86"><path d="M 609.332031 277.65625 L 577.242188 333.8125 L 641.421875 333.8125 Z M 609.332031 277.65625 " clip-rule="nonzero"/></clipPath><clipPath id="b43218c414"><path d="M 666.714844 331.421875 L 730.988281 331.421875 L 730.988281 387.578125 L 666.714844 387.578125 Z M 666.714844 331.421875 " clip-rule="nonzero"/></clipPath><clipPath id="32ca40c849"><path d="M 698.898438 331.421875 L 666.808594 387.578125 L 730.988281 387.578125 Z M 698.898438 331.421875 " clip-rule="nonzero"/></clipPath><clipPath id="f838a31b2e"><path d="M 730.996094 497.84375 L 795.269531 497.84375 L 795.269531 554 L 730.996094 554 Z M 730.996094 497.84375 " clip-rule="nonzero"/></clipPath><clipPath id="24982a7242"><path d="M 763.085938 554 L 795.175781 497.84375 L 730.996094 497.84375 Z M 763.085938 554 " clip-rule="nonzero"/></clipPath><clipPath id="42a9e4f828"><path d="M 641.601562 445.042969 L 705.875 445.042969 L 705.875 501.199219 L 641.601562 501.199219 Z M 641.601562 445.042969 " clip-rule="nonzero"/></clipPath><clipPath id="f917305e70"><path d="M 673.691406 501.199219 L 705.78125 445.042969 L 641.601562 445.042969 Z M 673.691406 501.199219 " clip-rule="nonzero"/></clipPath><clipPath id="eae0f98117"><path d="M 823.113281 441.683594 L 887.390625 441.683594 L 887.390625 497.84375 L 823.113281 497.84375 Z M 823.113281 441.683594 " clip-rule="nonzero"/></clipPath><clipPath id="a6eaa2ded8"><path d="M 855.300781 441.683594 L 823.210938 497.84375 L 887.390625 497.84375 Z M 855.300781 441.683594 " clip-rule="nonzero"/></clipPath><clipPath id="a6815fa0e1"><path d="M 914.328125 227.0625 L 978.601562 227.0625 L 978.601562 283.21875 L 914.328125 283.21875 Z M 914.328125 227.0625 " clip-rule="nonzero"/></clipPath><clipPath id="d0602c0c73"><path d="M 946.511719 227.0625 L 914.421875 283.21875 L 978.601562 283.21875 Z M 946.511719 227.0625 " clip-rule="nonzero"/></clipPath><clipPath id="cd353a17ae"><path d="M 545.230469 499.941406 L 609.503906 499.941406 L 609.503906 556.101562 L 545.230469 556.101562 Z M 545.230469 499.941406 " clip-rule="nonzero"/></clipPath><clipPath id="9ff997568e"><path d="M 577.414062 499.941406 L 545.324219 556.101562 L 609.503906 556.101562 Z M 577.414062 499.941406 " clip-rule="nonzero"/></clipPath><clipPath id="ee81bb467d"><path d="M 351.539062 611.933594 L 415.8125 611.933594 L 415.8125 668.089844 L 351.539062 668.089844 Z M 351.539062 611.933594 " clip-rule="nonzero"/></clipPath><clipPath id="4353ede0de"><path d="M 383.722656 611.933594 L 351.632812 668.089844 L 415.8125 668.089844 Z M 383.722656 611.933594 " clip-rule="nonzero"/></clipPath><clipPath id="5d8e1f2abb"><path d="M 319.550781 611.933594 L 383.824219 611.933594 L 383.824219 668.089844 L 319.550781 668.089844 Z M 319.550781 611.933594 " clip-rule="nonzero"/></clipPath><clipPath id="2d4e44c953"><path d="M 351.640625 668.089844 L 383.730469 611.933594 L 319.550781 611.933594 Z M 351.640625 668.089844 " clip-rule="nonzero"/></clipPath><clipPath id="740df1d3f7"><path d="M 223.546875 611.933594 L 287.820312 611.933594 L 287.820312 668.089844 L 223.546875 668.089844 Z M 223.546875 611.933594 " clip-rule="nonzero"/></clipPath><clipPath id="bf78aded99"><path d="M 255.730469 611.933594 L 223.640625 668.089844 L 287.820312 668.089844 Z M 255.730469 611.933594 " clip-rule="nonzero"/></clipPath><clipPath id="e49f9692fc"><path d="M 541.613281 611.082031 L 605.886719 611.082031 L 605.886719 667.242188 L 541.613281 667.242188 Z M 541.613281 611.082031 " clip-rule="nonzero"/></clipPath><clipPath id="a26eb8bcb0"><path d="M 573.796875 611.082031 L 541.707031 667.242188 L 605.886719 667.242188 Z M 573.796875 611.082031 " clip-rule="nonzero"/></clipPath><clipPath id="cfbf5ec80b"><path d="M 509.351562 611.933594 L 573.625 611.933594 L 573.625 668.089844 L 509.351562 668.089844 Z M 509.351562 611.933594 " clip-rule="nonzero"/></clipPath><clipPath id="e104485486"><path d="M 541.441406 668.089844 L 573.53125 611.933594 L 509.351562 611.933594 Z M 541.441406 668.089844 " clip-rule="nonzero"/></clipPath><clipPath id="07b4cd28d9"><path d="M 637.621094 611.085938 L 701.894531 611.085938 L 701.894531 667.242188 L 637.621094 667.242188 Z M 637.621094 611.085938 " clip-rule="nonzero"/></clipPath><clipPath id="6797640d5f"><path d="M 669.710938 667.242188 L 701.800781 611.085938 L 637.621094 611.085938 Z M 669.710938 667.242188 " clip-rule="nonzero"/></clipPath><clipPath id="83bb211d15"><path d="M 1006.722656 275.78125 L 1070.996094 275.78125 L 1070.996094 331.9375 L 1006.722656 331.9375 Z M 1006.722656 275.78125 " clip-rule="nonzero"/></clipPath><clipPath id="2e863f4719"><path d="M 1038.8125 331.9375 L 1070.902344 275.78125 L 1006.722656 275.78125 Z M 1038.8125 331.9375 " clip-rule="nonzero"/></clipPath><clipPath id="50829be800"><path d="M 1224.722656 165.289062 L 1288.996094 165.289062 L 1288.996094 221.449219 L 1224.722656 221.449219 Z M 1224.722656 165.289062 " clip-rule="nonzero"/></clipPath><clipPath id="d17df7b4e7"><path d="M 1256.90625 165.289062 L 1224.816406 221.449219 L 1288.996094 221.449219 Z M 1256.90625 165.289062 " clip-rule="nonzero"/></clipPath><clipPath id="29e794f7e3"><path d="M 1160.296875 109.132812 L 1224.570312 109.132812 L 1224.570312 165.292969 L 1160.296875 165.292969 Z M 1160.296875 109.132812 " clip-rule="nonzero"/></clipPath><clipPath id="56d6bbb28a"><path d="M 1192.386719 165.292969 L 1224.476562 109.132812 L 1160.296875 109.132812 Z M 1192.386719 165.292969 " clip-rule="nonzero"/></clipPath><clipPath id="0275f2950b"><path d="M 1289.460938 106.738281 L 1353.738281 106.738281 L 1353.738281 162.898438 L 1289.460938 162.898438 Z M 1289.460938 106.738281 " clip-rule="nonzero"/></clipPath><clipPath id="6d8af2ae0e"><path d="M 1321.648438 106.738281 L 1289.558594 162.898438 L 1353.738281 162.898438 Z M 1321.648438 106.738281 " clip-rule="nonzero"/></clipPath><clipPath id="831f2afa0d"><path d="M 1038.535156 109.132812 L 1102.8125 109.132812 L 1102.8125 165.289062 L 1038.535156 165.289062 Z M 1038.535156 109.132812 " clip-rule="nonzero"/></clipPath><clipPath id="145841710f"><path d="M 1070.722656 109.132812 L 1038.632812 165.289062 L 1102.8125 165.289062 Z M 1070.722656 109.132812 " clip-rule="nonzero"/></clipPath><clipPath id="d3ba5c5442"><path d="M 1128.101562 162.898438 L 1192.378906 162.898438 L 1192.378906 219.054688 L 1128.101562 219.054688 Z M 1128.101562 162.898438 " clip-rule="nonzero"/></clipPath><clipPath id="0afdddd5fe"><path d="M 1160.289062 162.898438 L 1128.195312 219.054688 L 1192.378906 219.054688 Z M 1160.289062 162.898438 " clip-rule="nonzero"/></clipPath><clipPath id="00819c4e42"><path d="M 1192.386719 329.320312 L 1256.660156 329.320312 L 1256.660156 385.476562 L 1192.386719 385.476562 Z M 1192.386719 329.320312 " clip-rule="nonzero"/></clipPath><clipPath id="3a8f66d4ce"><path d="M 1224.476562 385.476562 L 1256.566406 329.320312 L 1192.386719 329.320312 Z M 1224.476562 385.476562 " clip-rule="nonzero"/></clipPath><clipPath id="0c03dc3478"><path d="M 1102.992188 276.519531 L 1167.265625 276.519531 L 1167.265625 332.675781 L 1102.992188 332.675781 Z M 1102.992188 276.519531 " clip-rule="nonzero"/></clipPath><clipPath id="09fd5a603b"><path d="M 1135.082031 332.675781 L 1167.171875 276.519531 L 1102.992188 276.519531 Z M 1135.082031 332.675781 " clip-rule="nonzero"/></clipPath><clipPath id="bce6db2361"><path d="M 1284.503906 273.164062 L 1348.777344 273.164062 L 1348.777344 329.320312 L 1284.503906 329.320312 Z M 1284.503906 273.164062 " clip-rule="nonzero"/></clipPath><clipPath id="c0a748e470"><path d="M 1316.6875 273.164062 L 1284.597656 329.320312 L 1348.777344 329.320312 Z M 1316.6875 273.164062 " clip-rule="nonzero"/></clipPath><clipPath id="449306346e"><path d="M 1375.71875 58.539062 L 1439.992188 58.539062 L 1439.992188 114.695312 L 1375.71875 114.695312 Z M 1375.71875 58.539062 " clip-rule="nonzero"/></clipPath><clipPath id="4444153644"><path d="M 1407.902344 58.539062 L 1375.8125 114.695312 L 1439.992188 114.695312 Z M 1407.902344 58.539062 " clip-rule="nonzero"/></clipPath><clipPath id="816a885990"><path d="M 1006.621094 331.421875 L 1070.894531 331.421875 L 1070.894531 387.578125 L 1006.621094 387.578125 Z M 1006.621094 331.421875 " clip-rule="nonzero"/></clipPath><clipPath id="265e621d64"><path d="M 1038.804688 331.421875 L 1006.714844 387.578125 L 1070.894531 387.578125 Z M 1038.804688 331.421875 " clip-rule="nonzero"/></clipPath><clipPath id="1fbb3fe077"><path d="M 942.441406 435.578125 L 1006.714844 435.578125 L 1006.714844 491.734375 L 942.441406 491.734375 Z M 942.441406 435.578125 " clip-rule="nonzero"/></clipPath><clipPath id="c220f87b4a"><path d="M 974.625 435.578125 L 942.535156 491.734375 L 1006.714844 491.734375 Z M 974.625 435.578125 " clip-rule="nonzero"/></clipPath><clipPath id="dc49bddf1e"><path d="M 1087.035156 554 L 1151.3125 554 L 1151.3125 610.15625 L 1087.035156 610.15625 Z M 1087.035156 554 " clip-rule="nonzero"/></clipPath><clipPath id="9e406c12d5"><path d="M 1119.222656 554 L 1087.128906 610.15625 L 1151.3125 610.15625 Z M 1119.222656 554 " clip-rule="nonzero"/></clipPath><clipPath id="a3e33800e6"><path d="M 1218.121094 469.765625 L 1282.394531 469.765625 L 1282.394531 525.921875 L 1218.121094 525.921875 Z M 1218.121094 469.765625 " clip-rule="nonzero"/></clipPath><clipPath id="619a5707df"><path d="M 1250.304688 469.765625 L 1218.214844 525.921875 L 1282.394531 525.921875 Z M 1250.304688 469.765625 " clip-rule="nonzero"/></clipPath></defs><rect x="-144" width="1728" fill="#ffffff" y="-80.999999" height="971.999992" fill-opacity="1"/><rect x="-144" width="1728" fill="#ffffff" y="-80.999999" height="971.999992" fill-opacity="1"/><g clip-path="url(#38ef3908f8)"><g clip-path="url(#d1ca3fba72)"><path fill="#d5e7e5" d="M 126.058594 722.621094 L 61.785156 722.621094 L 61.785156 666.464844 L 126.058594 666.464844 Z M 126.058594 722.621094 " fill-opacity="1" fill-rule="nonzero"/></g></g><g clip-path="url(#9b793af176)"><g clip-path="url(#e5551b4984)"><path fill="#83b6b3" d="M 61.886719 722.625 L 126.160156 722.625 L 126.160156 778.78125 L 61.886719 778.78125 Z M 61.886719 722.625 " fill-opacity="1" fill-rule="nonzero"/></g></g><g clip-path="url(#18d95f3851)"><g clip-path="url(#7cd66543ee)"><path fill="#066d66" d="M 93.96875 779.113281 L 29.695312 779.113281 L 29.695312 722.953125 L 93.96875 722.953125 Z M 93.96875 779.113281 " fill-opacity="1" fill-rule="nonzero"/></g></g><g clip-path="url(#894f9bb255)"><g clip-path="url(#0de530b35a)"><path fill="#308580" d="M 93.976562 666.464844 L 158.25 666.464844 L 158.25 722.625 L 93.976562 722.625 Z M 93.976562 666.464844 " fill-opacity="1" fill-rule="nonzero"/></g></g><g clip-path="url(#479d9f1e4f)"><g clip-path="url(#ca92079bfd)"><path fill="#599e99" d="M 29.519531 667.316406 L 93.792969 667.316406 L 93.792969 723.472656 L 29.519531 723.472656 Z M 29.519531 667.316406 " fill-opacity="1" fill-rule="nonzero"/></g></g><g clip-path="url(#e5769c4d2d)"><g clip-path="url(#87fe072de2)"><path fill="#accecc" d="M 158.148438 778.78125 L 93.875 778.78125 L 93.875 722.621094 L 158.148438 722.621094 Z M 158.148438 778.78125 " fill-opacity="1" fill-rule="nonzero"/></g></g><g clip-path="url(#60ce3c9b1b)"><g clip-path="url(#1c945dc8b4)"><path fill="#d5e7e5" d="M 125.699219 723.472656 L 189.972656 723.472656 L 189.972656 779.628906 L 125.699219 779.628906 Z M 125.699219 723.472656 " fill-opacity="1" fill-rule="nonzero"/></g></g><g clip-path="url(#25544e6119)"><g clip-path="url(#b7e83c3c29)"><path fill="#83b6b3" d="M 254.050781 722.621094 L 189.777344 722.621094 L 189.777344 666.464844 L 254.050781 666.464844 Z M 254.050781 722.621094 " fill-opacity="1" fill-rule="nonzero"/></g></g><g clip-path="url(#53cbbb3735)"><g clip-path="url(#2668a45c4a)"><path fill="#308580" d="M 221.960938 778.78125 L 157.6875 778.78125 L 157.6875 722.621094 L 221.960938 722.621094 Z M 221.960938 778.78125 " fill-opacity="1" fill-rule="nonzero"/></g></g><g clip-path="url(#5dcb67efa7)"><g clip-path="url(#d305451bb0)"><path fill="#599e99" d="M 286.492188 778.78125 L 222.21875 778.78125 L 222.21875 722.621094 L 286.492188 722.621094 Z M 286.492188 778.78125 " fill-opacity="1" fill-rule="nonzero"/></g></g><g clip-path="url(#af3db49c0c)"><g clip-path="url(#aef27e1ed4)"><path fill="#accecc" d="M 157.789062 666.464844 L 222.0625 666.464844 L 222.0625 722.625 L 157.789062 722.625 Z M 157.789062 666.464844 " fill-opacity="1" fill-rule="nonzero"/></g></g><g clip-path="url(#1bea911f45)"><g clip-path="url(#76b41bec2d)"><path fill="#066d66" d="M 351.300781 779.960938 L 287.023438 779.960938 L 287.023438 723.804688 L 351.300781 723.804688 Z M 351.300781 779.960938 " fill-opacity="1" fill-rule="nonzero"/></g></g><g clip-path="url(#6a3344bb3a)"><g clip-path="url(#3bd54f590b)"><path fill="#d5e7e5" d="M 383.03125 724.324219 L 447.304688 724.324219 L 447.304688 780.480469 L 383.03125 780.480469 Z M 383.03125 724.324219 " fill-opacity="1" fill-rule="nonzero"/></g></g><g clip-path="url(#2ea8aacd21)"><g clip-path="url(#0e6fd25754)"><path fill="#83b6b3" d="M 511.382812 723.472656 L 447.109375 723.472656 L 447.109375 667.316406 L 511.382812 667.316406 Z M 511.382812 723.472656 " fill-opacity="1" fill-rule="nonzero"/></g></g><g clip-path="url(#6a66174a3c)"><g clip-path="url(#ef369ccf12)"><path fill="#308580" d="M 479.292969 779.628906 L 415.019531 779.628906 L 415.019531 723.472656 L 479.292969 723.472656 Z M 479.292969 779.628906 " fill-opacity="1" fill-rule="nonzero"/></g></g><g clip-path="url(#2c1279e280)"><g clip-path="url(#106a41d62e)"><path fill="#599e99" d="M 543.824219 779.628906 L 479.546875 779.628906 L 479.546875 723.472656 L 543.824219 723.472656 Z M 543.824219 779.628906 " fill-opacity="1" fill-rule="nonzero"/></g></g><g clip-path="url(#8f590e9d16)"><g clip-path="url(#bb412d0b24)"><path fill="#accecc" d="M 415.121094 667.316406 L 479.394531 667.316406 L 479.394531 723.472656 L 415.121094 723.472656 Z M 415.121094 667.316406 " fill-opacity="1" fill-rule="nonzero"/></g></g><g clip-path="url(#eb53e1b759)"><g clip-path="url(#8e7433cc51)"><path fill="#accecc" d="M 604.910156 779.394531 L 540.636719 779.394531 L 540.636719 723.238281 L 604.910156 723.238281 Z M 604.910156 779.394531 " fill-opacity="1" fill-rule="nonzero"/></g></g><g clip-path="url(#5ba2f5ab6e)"><g clip-path="url(#56b6366602)"><path fill="#83b6b3" d="M 62.589844 611.507812 L 126.863281 611.507812 L 126.863281 667.667969 L 62.589844 667.667969 Z M 62.589844 611.507812 " fill-opacity="1" fill-rule="nonzero"/></g></g><g clip-path="url(#e12e049916)"><g clip-path="url(#34360b2196)"><path fill="#d5e7e5" d="M 126.402344 612.359375 L 190.675781 612.359375 L 190.675781 668.515625 L 126.402344 668.515625 Z M 126.402344 612.359375 " fill-opacity="1" fill-rule="nonzero"/></g></g><g clip-path="url(#d3079e5b0f)"><g clip-path="url(#aedd590a24)"><path fill="#308580" d="M 94.679688 555.351562 L 158.953125 555.351562 L 158.953125 611.507812 L 94.679688 611.507812 Z M 94.679688 555.351562 " fill-opacity="1" fill-rule="nonzero"/></g></g><g clip-path="url(#a7f64914ee)"><g clip-path="url(#1def2c3936)"><path fill="#d5e7e5" d="M 383.390625 723.472656 L 319.113281 723.472656 L 319.113281 667.316406 L 383.390625 667.316406 Z M 383.390625 723.472656 " fill-opacity="1" fill-rule="nonzero"/></g></g><g clip-path="url(#d979ca333f)"><g clip-path="url(#752dbe56e1)"><path fill="#d5e7e5" d="M 140.070312 500.28125 L 204.34375 500.28125 L 204.34375 556.441406 L 140.070312 556.441406 Z M 140.070312 500.28125 " fill-opacity="1" fill-rule="nonzero"/></g></g><g clip-path="url(#bc566ed23d)"><g clip-path="url(#5a71e8d99d)"><path fill="#accecc" d="M 415.480469 779.628906 L 351.207031 779.628906 L 351.207031 723.472656 L 415.480469 723.472656 Z M 415.480469 779.628906 " fill-opacity="1" fill-rule="nonzero"/></g></g><g clip-path="url(#cf9f269ff9)"><g clip-path="url(#94460a5f25)"><path fill="#d5e7e5" d="M 701.457031 722.621094 L 637.183594 722.621094 L 637.183594 666.464844 L 701.457031 666.464844 Z M 701.457031 722.621094 " fill-opacity="1" fill-rule="nonzero"/></g></g><g clip-path="url(#b8deaacad3)"><g clip-path="url(#9599bef6be)"><path fill="#83b6b3" d="M 637.285156 722.625 L 701.558594 722.625 L 701.558594 778.78125 L 637.285156 778.78125 Z M 637.285156 722.625 " fill-opacity="1" fill-rule="nonzero"/></g></g><g clip-path="url(#b286e76e1c)"><g clip-path="url(#bddb21e4fd)"><path fill="#066d66" d="M 669.367188 779.113281 L 605.09375 779.113281 L 605.09375 722.953125 L 669.367188 722.953125 Z M 669.367188 779.113281 " fill-opacity="1" fill-rule="nonzero"/></g></g><g clip-path="url(#5c6cd72a24)"><g clip-path="url(#c52d622cf4)"><path fill="#599e99" d="M 604.917969 667.316406 L 669.191406 667.316406 L 669.191406 723.472656 L 604.917969 723.472656 Z M 604.917969 667.316406 " fill-opacity="1" fill-rule="nonzero"/></g></g><g clip-path="url(#2fbcf63319)"><g clip-path="url(#f27ddaa757)"><path fill="#accecc" d="M 733.546875 778.78125 L 669.273438 778.78125 L 669.273438 722.621094 L 733.546875 722.621094 Z M 733.546875 778.78125 " fill-opacity="1" fill-rule="nonzero"/></g></g><g clip-path="url(#a7337af537)"><g clip-path="url(#552a406774)"><path fill="#d5e7e5" d="M 701.097656 723.472656 L 765.371094 723.472656 L 765.371094 779.628906 L 701.097656 779.628906 Z M 701.097656 723.472656 " fill-opacity="1" fill-rule="nonzero"/></g></g><g clip-path="url(#529cdf322a)"><g clip-path="url(#d5996b0e03)"><path fill="#83b6b3" d="M 829.449219 722.621094 L 765.175781 722.621094 L 765.175781 666.464844 L 829.449219 666.464844 Z M 829.449219 722.621094 " fill-opacity="1" fill-rule="nonzero"/></g></g><g clip-path="url(#29730519da)"><g clip-path="url(#0fb0bb6662)"><path fill="#308580" d="M 797.359375 778.78125 L 733.085938 778.78125 L 733.085938 722.621094 L 797.359375 722.621094 Z M 797.359375 778.78125 " fill-opacity="1" fill-rule="nonzero"/></g></g><g clip-path="url(#cbb78b5798)"><g clip-path="url(#f792f93f78)"><path fill="#599e99" d="M 861.890625 778.78125 L 797.617188 778.78125 L 797.617188 722.621094 L 861.890625 722.621094 Z M 861.890625 778.78125 " fill-opacity="1" fill-rule="nonzero"/></g></g><g clip-path="url(#2f633d82a0)"><g clip-path="url(#aabb07a4f1)"><path fill="#accecc" d="M 733.1875 666.464844 L 797.460938 666.464844 L 797.460938 722.625 L 733.1875 722.625 Z M 733.1875 666.464844 " fill-opacity="1" fill-rule="nonzero"/></g></g><g clip-path="url(#02ffbec1ad)"><g clip-path="url(#8141d1c037)"><path fill="#066d66" d="M 926.699219 779.960938 L 862.421875 779.960938 L 862.421875 723.804688 L 926.699219 723.804688 Z M 926.699219 779.960938 " fill-opacity="1" fill-rule="nonzero"/></g></g><g clip-path="url(#05e469172f)"><g clip-path="url(#543f0335e6)"><path fill="#d5e7e5" d="M 958.429688 724.324219 L 1022.703125 724.324219 L 1022.703125 780.480469 L 958.429688 780.480469 Z M 958.429688 724.324219 " fill-opacity="1" fill-rule="nonzero"/></g></g><g clip-path="url(#5773bf0212)"><g clip-path="url(#72f2c4c786)"><path fill="#83b6b3" d="M 1118.152344 666.464844 L 1053.875 666.464844 L 1053.875 610.308594 L 1118.152344 610.308594 Z M 1118.152344 666.464844 " fill-opacity="1" fill-rule="nonzero"/></g></g><g clip-path="url(#f57cd7f53f)"><g clip-path="url(#343f7e1d54)"><path fill="#599e99" d="M 1119.222656 779.628906 L 1054.945312 779.628906 L 1054.945312 723.472656 L 1119.222656 723.472656 Z M 1119.222656 779.628906 " fill-opacity="1" fill-rule="nonzero"/></g></g><g clip-path="url(#4cd916b217)"><g clip-path="url(#61e178798c)"><path fill="#accecc" d="M 990.519531 667.316406 L 1054.792969 667.316406 L 1054.792969 723.472656 L 990.519531 723.472656 Z M 990.519531 667.316406 " fill-opacity="1" fill-rule="nonzero"/></g></g><g clip-path="url(#1753e346ff)"><g clip-path="url(#f91bb4aa8e)"><path fill="#accecc" d="M 1180.308594 779.394531 L 1116.035156 779.394531 L 1116.035156 723.238281 L 1180.308594 723.238281 Z M 1180.308594 779.394531 " fill-opacity="1" fill-rule="nonzero"/></g></g><g clip-path="url(#b2417467ee)"><g clip-path="url(#ec34241833)"><path fill="#83b6b3" d="M 637.988281 611.507812 L 702.261719 611.507812 L 702.261719 667.667969 L 637.988281 667.667969 Z M 637.988281 611.507812 " fill-opacity="1" fill-rule="nonzero"/></g></g><g clip-path="url(#cd180529ed)"><g clip-path="url(#cbd24acab2)"><path fill="#d5e7e5" d="M 701.800781 612.359375 L 766.074219 612.359375 L 766.074219 668.515625 L 701.800781 668.515625 Z M 701.800781 612.359375 " fill-opacity="1" fill-rule="nonzero"/></g></g><g clip-path="url(#9f57c5a9f0)"><g clip-path="url(#9ea119c6c3)"><path fill="#d5e7e5" d="M 958.789062 723.472656 L 894.511719 723.472656 L 894.511719 667.316406 L 958.789062 667.316406 Z M 958.789062 723.472656 " fill-opacity="1" fill-rule="nonzero"/></g></g><g clip-path="url(#e38fdb9590)"><g clip-path="url(#44e54defad)"><path fill="#d5e7e5" d="M 671.472656 555.882812 L 735.746094 555.882812 L 735.746094 612.039062 L 671.472656 612.039062 Z M 671.472656 555.882812 " fill-opacity="1" fill-rule="nonzero"/></g></g><g clip-path="url(#b1fc7e91ef)"><g clip-path="url(#14c1c473ca)"><path fill="#599e99" d="M 254.753906 611.925781 L 190.476562 611.925781 L 190.476562 555.769531 L 254.753906 555.769531 Z M 254.753906 611.925781 " fill-opacity="1" fill-rule="nonzero"/></g></g><g clip-path="url(#a97d99dc96)"><g clip-path="url(#45270d1495)"><path fill="#d5e7e5" d="M 352 556.617188 L 287.726562 556.617188 L 287.726562 500.460938 L 352 500.460938 Z M 352 556.617188 " fill-opacity="1" fill-rule="nonzero"/></g></g><g clip-path="url(#fbfe06563e)"><g clip-path="url(#31d9b9ee3c)"><path fill="#066d66" d="M 319.910156 613.109375 L 255.636719 613.109375 L 255.636719 556.949219 L 319.910156 556.949219 Z M 319.910156 613.109375 " fill-opacity="1" fill-rule="nonzero"/></g></g><g clip-path="url(#640a0c78d1)"><g clip-path="url(#c08527f1d0)"><path fill="#accecc" d="M 383.03125 445.390625 L 447.304688 445.390625 L 447.304688 501.550781 L 383.03125 501.550781 Z M 383.03125 445.390625 " fill-opacity="1" fill-rule="nonzero"/></g></g><g clip-path="url(#c1f40e14db)"><g clip-path="url(#5d4b64dee2)"><path fill="#accecc" d="M 544.171875 556.617188 L 479.898438 556.617188 L 479.898438 500.460938 L 544.171875 500.460938 Z M 544.171875 556.617188 " fill-opacity="1" fill-rule="nonzero"/></g></g><g clip-path="url(#79fd074629)"><g clip-path="url(#99d452103b)"><path fill="#066d66" d="M 638.453125 612.257812 L 574.175781 612.257812 L 574.175781 556.101562 L 638.453125 556.101562 Z M 638.453125 612.257812 " fill-opacity="1" fill-rule="nonzero"/></g></g><g clip-path="url(#99868e9771)"><g clip-path="url(#1f11fa2bf7)"><path fill="#d5e7e5" d="M 545.332031 444.304688 L 609.605469 444.304688 L 609.605469 500.460938 L 545.332031 500.460938 Z M 545.332031 444.304688 " fill-opacity="1" fill-rule="nonzero"/></g></g><g clip-path="url(#967b3f0a9b)"><g clip-path="url(#196d0b53c1)"><path fill="#308580" d="M 352 501.199219 L 287.726562 501.199219 L 287.726562 445.039062 L 352 445.039062 Z M 352 501.199219 " fill-opacity="1" fill-rule="nonzero"/></g></g><g clip-path="url(#9a0847764a)"><g clip-path="url(#48b6b6d864)"><path fill="#accecc" d="M 352.710938 554.570312 L 416.984375 554.570312 L 416.984375 610.726562 L 352.710938 610.726562 Z M 352.710938 554.570312 " fill-opacity="1" fill-rule="nonzero"/></g></g><g clip-path="url(#f355cafa28)"><g clip-path="url(#935feb1d36)"><path fill="#599e99" d="M 482.8125 387.578125 L 547.085938 387.578125 L 547.085938 443.734375 L 482.8125 443.734375 Z M 482.8125 387.578125 " fill-opacity="1" fill-rule="nonzero"/></g></g><g clip-path="url(#739997cfd1)"><g clip-path="url(#ad60d63a48)"><path fill="#83b6b3" d="M 287.828125 389.972656 L 352.101562 389.972656 L 352.101562 446.128906 L 287.828125 446.128906 Z M 287.828125 389.972656 " fill-opacity="1" fill-rule="nonzero"/></g></g><g clip-path="url(#5272742788)"><g clip-path="url(#0a8273f46a)"><path fill="#308580" d="M 352.007812 276.808594 L 416.28125 276.808594 L 416.28125 332.964844 L 352.007812 332.964844 Z M 352.007812 276.808594 " fill-opacity="1" fill-rule="nonzero"/></g></g><g clip-path="url(#86508af452)"><g clip-path="url(#44233115ea)"><path fill="#83b6b3" d="M 512.082031 332.964844 L 447.808594 332.964844 L 447.808594 276.804688 L 512.082031 276.804688 Z M 512.082031 332.964844 " fill-opacity="1" fill-rule="nonzero"/></g></g><g clip-path="url(#fe6546f6b8)"><g clip-path="url(#b20f60164f)"><path fill="#d5e7e5" d="M 479.992188 389.121094 L 415.71875 389.121094 L 415.71875 332.964844 L 479.992188 332.964844 Z M 479.992188 389.121094 " fill-opacity="1" fill-rule="nonzero"/></g></g><g clip-path="url(#88dbb8831a)"><g clip-path="url(#df1e077225)"><path fill="#599e99" d="M 827.609375 389.972656 L 763.335938 389.972656 L 763.335938 333.8125 L 827.609375 333.8125 Z M 827.609375 389.972656 " fill-opacity="1" fill-rule="nonzero"/></g></g><g clip-path="url(#034ab2cd07)"><g clip-path="url(#427b0c32ff)"><path fill="#accecc" d="M 698.90625 277.65625 L 763.179688 277.65625 L 763.179688 333.816406 L 698.90625 333.816406 Z M 698.90625 277.65625 " fill-opacity="1" fill-rule="nonzero"/></g></g><g clip-path="url(#b989e03cae)"><g clip-path="url(#31c44c8d5a)"><path fill="#accecc" d="M 892.347656 331.421875 L 828.074219 331.421875 L 828.074219 275.261719 L 892.347656 275.261719 Z M 892.347656 331.421875 " fill-opacity="1" fill-rule="nonzero"/></g></g><g clip-path="url(#5141a424fd)"><g clip-path="url(#f9c480da86)"><path fill="#d5e7e5" d="M 641.421875 333.8125 L 577.148438 333.8125 L 577.148438 277.65625 L 641.421875 277.65625 Z M 641.421875 333.8125 " fill-opacity="1" fill-rule="nonzero"/></g></g><g clip-path="url(#b43218c414)"><g clip-path="url(#32ca40c849)"><path fill="#e1f5f3" d="M 730.988281 387.578125 L 666.714844 387.578125 L 666.714844 331.421875 L 730.988281 331.421875 Z M 730.988281 387.578125 " fill-opacity="1" fill-rule="nonzero"/></g></g><g clip-path="url(#f838a31b2e)"><g clip-path="url(#24982a7242)"><path fill="#d5e7e5" d="M 730.996094 497.84375 L 795.269531 497.84375 L 795.269531 554 L 730.996094 554 Z M 730.996094 497.84375 " fill-opacity="1" fill-rule="nonzero"/></g></g><g clip-path="url(#42a9e4f828)"><g clip-path="url(#f917305e70)"><path fill="#599e99" d="M 641.601562 445.042969 L 705.875 445.042969 L 705.875 501.199219 L 641.601562 501.199219 Z M 641.601562 445.042969 " fill-opacity="1" fill-rule="nonzero"/></g></g><g clip-path="url(#eae0f98117)"><g clip-path="url(#a6eaa2ded8)"><path fill="#066d66" d="M 887.390625 497.84375 L 823.113281 497.84375 L 823.113281 441.683594 L 887.390625 441.683594 Z M 887.390625 497.84375 " fill-opacity="1" fill-rule="nonzero"/></g></g><g clip-path="url(#a6815fa0e1)"><g clip-path="url(#d0602c0c73)"><path fill="#e1f5f3" d="M 978.601562 283.21875 L 914.328125 283.21875 L 914.328125 227.0625 L 978.601562 227.0625 Z M 978.601562 283.21875 " fill-opacity="1" fill-rule="nonzero"/></g></g><g clip-path="url(#cd353a17ae)"><g clip-path="url(#9ff997568e)"><path fill="#e1f5f3" d="M 609.503906 556.101562 L 545.230469 556.101562 L 545.230469 499.941406 L 609.503906 499.941406 Z M 609.503906 556.101562 " fill-opacity="1" fill-rule="nonzero"/></g></g><g clip-path="url(#ee81bb467d)"><g clip-path="url(#4353ede0de)"><path fill="#83b6b3" d="M 415.8125 668.089844 L 351.539062 668.089844 L 351.539062 611.933594 L 415.8125 611.933594 Z M 415.8125 668.089844 " fill-opacity="1" fill-rule="nonzero"/></g></g><g clip-path="url(#5d8e1f2abb)"><g clip-path="url(#2d4e44c953)"><path fill="#accecc" d="M 319.550781 611.933594 L 383.824219 611.933594 L 383.824219 668.089844 L 319.550781 668.089844 Z M 319.550781 611.933594 " fill-opacity="1" fill-rule="nonzero"/></g></g><g clip-path="url(#740df1d3f7)"><g clip-path="url(#bf78aded99)"><path fill="#d5e7e5" d="M 287.820312 668.089844 L 223.546875 668.089844 L 223.546875 611.933594 L 287.820312 611.933594 Z M 287.820312 668.089844 " fill-opacity="1" fill-rule="nonzero"/></g></g><g clip-path="url(#e49f9692fc)"><g clip-path="url(#a26eb8bcb0)"><path fill="#d5e7e5" d="M 605.886719 667.242188 L 541.613281 667.242188 L 541.613281 611.082031 L 605.886719 611.082031 Z M 605.886719 667.242188 " fill-opacity="1" fill-rule="nonzero"/></g></g><g clip-path="url(#cfbf5ec80b)"><g clip-path="url(#e104485486)"><path fill="#599e99" d="M 509.351562 611.933594 L 573.625 611.933594 L 573.625 668.089844 L 509.351562 668.089844 Z M 509.351562 611.933594 " fill-opacity="1" fill-rule="nonzero"/></g></g><g clip-path="url(#07b4cd28d9)"><g clip-path="url(#6797640d5f)"><path fill="#accecc" d="M 637.621094 611.085938 L 701.894531 611.085938 L 701.894531 667.242188 L 637.621094 667.242188 Z M 637.621094 611.085938 " fill-opacity="1" fill-rule="nonzero"/></g></g><g clip-path="url(#83bb211d15)"><g clip-path="url(#2e863f4719)"><path fill="#d5e7e5" d="M 1006.722656 275.78125 L 1070.996094 275.78125 L 1070.996094 331.9375 L 1006.722656 331.9375 Z M 1006.722656 275.78125 " fill-opacity="1" fill-rule="nonzero"/></g></g><g clip-path="url(#50829be800)"><g clip-path="url(#d17df7b4e7)"><path fill="#599e99" d="M 1288.996094 221.449219 L 1224.722656 221.449219 L 1224.722656 165.289062 L 1288.996094 165.289062 Z M 1288.996094 221.449219 " fill-opacity="1" fill-rule="nonzero"/></g></g><g clip-path="url(#29e794f7e3)"><g clip-path="url(#56d6bbb28a)"><path fill="#accecc" d="M 1160.296875 109.132812 L 1224.570312 109.132812 L 1224.570312 165.292969 L 1160.296875 165.292969 Z M 1160.296875 109.132812 " fill-opacity="1" fill-rule="nonzero"/></g></g><g clip-path="url(#0275f2950b)"><g clip-path="url(#6d8af2ae0e)"><path fill="#accecc" d="M 1353.738281 162.898438 L 1289.460938 162.898438 L 1289.460938 106.738281 L 1353.738281 106.738281 Z M 1353.738281 162.898438 " fill-opacity="1" fill-rule="nonzero"/></g></g><g clip-path="url(#831f2afa0d)"><g clip-path="url(#145841710f)"><path fill="#d5e7e5" d="M 1102.8125 165.289062 L 1038.535156 165.289062 L 1038.535156 109.132812 L 1102.8125 109.132812 Z M 1102.8125 165.289062 " fill-opacity="1" fill-rule="nonzero"/></g></g><g clip-path="url(#d3ba5c5442)"><g clip-path="url(#0afdddd5fe)"><path fill="#e1f5f3" d="M 1192.378906 219.054688 L 1128.101562 219.054688 L 1128.101562 162.898438 L 1192.378906 162.898438 Z M 1192.378906 219.054688 " fill-opacity="1" fill-rule="nonzero"/></g></g><g clip-path="url(#00819c4e42)"><g clip-path="url(#3a8f66d4ce)"><path fill="#d5e7e5" d="M 1192.386719 329.320312 L 1256.660156 329.320312 L 1256.660156 385.476562 L 1192.386719 385.476562 Z M 1192.386719 329.320312 " fill-opacity="1" fill-rule="nonzero"/></g></g><g clip-path="url(#0c03dc3478)"><g clip-path="url(#09fd5a603b)"><path fill="#599e99" d="M 1102.992188 276.519531 L 1167.265625 276.519531 L 1167.265625 332.675781 L 1102.992188 332.675781 Z M 1102.992188 276.519531 " fill-opacity="1" fill-rule="nonzero"/></g></g><g clip-path="url(#bce6db2361)"><g clip-path="url(#c0a748e470)"><path fill="#066d66" d="M 1348.777344 329.320312 L 1284.503906 329.320312 L 1284.503906 273.164062 L 1348.777344 273.164062 Z M 1348.777344 329.320312 " fill-opacity="1" fill-rule="nonzero"/></g></g><g clip-path="url(#449306346e)"><g clip-path="url(#4444153644)"><path fill="#e1f5f3" d="M 1439.992188 114.695312 L 1375.71875 114.695312 L 1375.71875 58.539062 L 1439.992188 58.539062 Z M 1439.992188 114.695312 " fill-opacity="1" fill-rule="nonzero"/></g></g><g clip-path="url(#816a885990)"><g clip-path="url(#265e621d64)"><path fill="#e1f5f3" d="M 1070.894531 387.578125 L 1006.621094 387.578125 L 1006.621094 331.421875 L 1070.894531 331.421875 Z M 1070.894531 387.578125 " fill-opacity="1" fill-rule="nonzero"/></g></g><g clip-path="url(#1fbb3fe077)"><g clip-path="url(#c220f87b4a)"><path fill="#e1f5f3" d="M 1006.714844 491.734375 L 942.441406 491.734375 L 942.441406 435.578125 L 1006.714844 435.578125 Z M 1006.714844 491.734375 " fill-opacity="1" fill-rule="nonzero"/></g></g><g clip-path="url(#dc49bddf1e)"><g clip-path="url(#9e406c12d5)"><path fill="#d5e7e5" d="M 1151.3125 610.15625 L 1087.035156 610.15625 L 1087.035156 554 L 1151.3125 554 Z M 1151.3125 610.15625 " fill-opacity="1" fill-rule="nonzero"/></g></g><g clip-path="url(#a3e33800e6)"><g clip-path="url(#619a5707df)"><path fill="#accecc" d="M 1282.394531 525.921875 L 1218.121094 525.921875 L 1218.121094 469.765625 L 1282.394531 469.765625 Z M 1282.394531 525.921875 " fill-opacity="1" fill-rule="nonzero"/></g></g></svg>