<svg xmlns="http://www.w3.org/2000/svg" xmlns:xlink="http://www.w3.org/1999/xlink" width="1920" zoomAndPan="magnify" viewBox="0 0 1440 809.999993" height="1080" preserveAspectRatio="xMidYMid meet" version="1.0"><defs><clipPath id="d7520867d4"><path d="M 123.011719 580.542969 L 206.699219 580.542969 L 206.699219 653.660156 L 123.011719 653.660156 Z M 123.011719 580.542969 " clip-rule="nonzero"/></clipPath><clipPath id="fa1838b4cb"><path d="M 164.914062 580.542969 L 123.132812 653.660156 L 206.699219 653.660156 Z M 164.914062 580.542969 " clip-rule="nonzero"/></clipPath><clipPath id="5373c4a615"><path d="M 123.144531 653.667969 L 206.832031 653.667969 L 206.832031 726.789062 L 123.144531 726.789062 Z M 123.144531 653.667969 " clip-rule="nonzero"/></clipPath><clipPath id="8ed1cbe87f"><path d="M 164.925781 726.789062 L 206.707031 653.667969 L 123.144531 653.667969 Z M 164.925781 726.789062 " clip-rule="nonzero"/></clipPath><clipPath id="9ef348a4dc"><path d="M 81.226562 654.09375 L 164.914062 654.09375 L 164.914062 727.214844 L 81.226562 727.214844 Z M 81.226562 654.09375 " clip-rule="nonzero"/></clipPath><clipPath id="b040fd0e6b"><path d="M 123.132812 654.09375 L 81.351562 727.214844 L 164.914062 727.214844 Z M 123.132812 654.09375 " clip-rule="nonzero"/></clipPath><clipPath id="081fd555fa"><path d="M 164.925781 580.546875 L 248.613281 580.546875 L 248.613281 653.667969 L 164.925781 653.667969 Z M 164.925781 580.546875 " clip-rule="nonzero"/></clipPath><clipPath id="0d8cf5d01d"><path d="M 206.707031 653.667969 L 248.492188 580.546875 L 164.925781 580.546875 Z M 206.707031 653.667969 " clip-rule="nonzero"/></clipPath><clipPath id="499406aa20"><path d="M 81 581.65625 L 164.6875 581.65625 L 164.6875 654.773438 L 81 654.773438 Z M 81 581.65625 " clip-rule="nonzero"/></clipPath><clipPath id="896c354bb4"><path d="M 122.78125 654.773438 L 164.566406 581.65625 L 81 581.65625 Z M 122.78125 654.773438 " clip-rule="nonzero"/></clipPath><clipPath id="c2da9444b5"><path d="M 164.792969 653.660156 L 248.480469 653.660156 L 248.480469 726.78125 L 164.792969 726.78125 Z M 164.792969 653.660156 " clip-rule="nonzero"/></clipPath><clipPath id="dd7a771a6f"><path d="M 206.699219 653.660156 L 164.914062 726.78125 L 248.480469 726.78125 Z M 206.699219 653.660156 " clip-rule="nonzero"/></clipPath><clipPath id="90563d9018"><path d="M 206.230469 654.773438 L 289.917969 654.773438 L 289.917969 727.894531 L 206.230469 727.894531 Z M 206.230469 654.773438 " clip-rule="nonzero"/></clipPath><clipPath id="9f9b7e10bf"><path d="M 248.011719 727.894531 L 289.796875 654.773438 L 206.230469 654.773438 Z M 248.011719 727.894531 " clip-rule="nonzero"/></clipPath><clipPath id="dea5ed26f0"><path d="M 289.664062 580.542969 L 373.351562 580.542969 L 373.351562 653.660156 L 289.664062 653.660156 Z M 289.664062 580.542969 " clip-rule="nonzero"/></clipPath><clipPath id="e7ca2e22f6"><path d="M 331.566406 580.542969 L 289.785156 653.660156 L 373.351562 653.660156 Z M 331.566406 580.542969 " clip-rule="nonzero"/></clipPath><clipPath id="d7bf438031"><path d="M 248 653.660156 L 331.566406 653.660156 L 331.566406 726.78125 L 248 726.78125 Z M 248 653.660156 " clip-rule="nonzero"/></clipPath><clipPath id="ebd0111b50"><path d="M 289.785156 653.660156 L 248.003906 726.78125 L 331.566406 726.78125 Z M 289.785156 653.660156 " clip-rule="nonzero"/></clipPath><clipPath id="b3ba113acb"><path d="M 332 653.660156 L 415.589844 653.660156 L 415.589844 726.78125 L 332 726.78125 Z M 332 653.660156 " clip-rule="nonzero"/></clipPath><clipPath id="5c94348128"><path d="M 373.808594 653.660156 L 332.023438 726.78125 L 415.589844 726.78125 Z M 373.808594 653.660156 " clip-rule="nonzero"/></clipPath><clipPath id="742b6e40bd"><path d="M 248.011719 580.546875 L 331.699219 580.546875 L 331.699219 653.667969 L 248.011719 653.667969 Z M 248.011719 580.546875 " clip-rule="nonzero"/></clipPath><clipPath id="727b0acdc1"><path d="M 289.796875 653.667969 L 331.578125 580.546875 L 248.011719 580.546875 Z M 289.796875 653.667969 " clip-rule="nonzero"/></clipPath><clipPath id="c1715b5688"><path d="M 416.285156 655.199219 L 499.972656 655.199219 L 499.972656 728.320312 L 416.285156 728.320312 Z M 416.285156 655.199219 " clip-rule="nonzero"/></clipPath><clipPath id="97291069b3"><path d="M 458.1875 655.199219 L 416.40625 728.320312 L 499.972656 728.320312 Z M 458.1875 655.199219 " clip-rule="nonzero"/></clipPath><clipPath id="8229034cf5"><path d="M 541.285156 655.878906 L 624.972656 655.878906 L 624.972656 729 L 541.285156 729 Z M 541.285156 655.878906 " clip-rule="nonzero"/></clipPath><clipPath id="54acd16950"><path d="M 583.070312 729 L 624.851562 655.878906 L 541.285156 655.878906 Z M 583.070312 729 " clip-rule="nonzero"/></clipPath><clipPath id="a67b7b52ca"><path d="M 624.71875 581.648438 L 708.40625 581.648438 L 708.40625 654.769531 L 624.71875 654.769531 Z M 624.71875 581.648438 " clip-rule="nonzero"/></clipPath><clipPath id="7588d0e609"><path d="M 666.625 581.648438 L 624.839844 654.769531 L 708.40625 654.769531 Z M 666.625 581.648438 " clip-rule="nonzero"/></clipPath><clipPath id="1dfe84c346"><path d="M 583 654.769531 L 666.625 654.769531 L 666.625 727.886719 L 583 727.886719 Z M 583 654.769531 " clip-rule="nonzero"/></clipPath><clipPath id="09e6a3e6da"><path d="M 624.839844 654.769531 L 583.058594 727.886719 L 666.625 727.886719 Z M 624.839844 654.769531 " clip-rule="nonzero"/></clipPath><clipPath id="d3b4445cff"><path d="M 667 654.769531 L 750.644531 654.769531 L 750.644531 727.886719 L 667 727.886719 Z M 667 654.769531 " clip-rule="nonzero"/></clipPath><clipPath id="da73dcd362"><path d="M 708.863281 654.769531 L 667.082031 727.886719 L 750.644531 727.886719 Z M 708.863281 654.769531 " clip-rule="nonzero"/></clipPath><clipPath id="37d52849fa"><path d="M 583.070312 581.65625 L 666.757812 581.65625 L 666.757812 654.773438 L 583.070312 654.773438 Z M 583.070312 581.65625 " clip-rule="nonzero"/></clipPath><clipPath id="388d04c786"><path d="M 624.851562 654.773438 L 666.632812 581.65625 L 583.070312 581.65625 Z M 624.851562 654.773438 " clip-rule="nonzero"/></clipPath><clipPath id="8b1a9c4d89"><path d="M 746.496094 654.460938 L 830.183594 654.460938 L 830.183594 727.582031 L 746.496094 727.582031 Z M 746.496094 654.460938 " clip-rule="nonzero"/></clipPath><clipPath id="bbc9e53341"><path d="M 788.402344 654.460938 L 746.621094 727.582031 L 830.183594 727.582031 Z M 788.402344 654.460938 " clip-rule="nonzero"/></clipPath><clipPath id="3a3827e3ba"><path d="M 124.054688 508.992188 L 207.746094 508.992188 L 207.746094 582.109375 L 124.054688 582.109375 Z M 124.054688 508.992188 " clip-rule="nonzero"/></clipPath><clipPath id="968fba3b20"><path d="M 165.839844 582.109375 L 207.621094 508.992188 L 124.054688 508.992188 Z M 165.839844 582.109375 " clip-rule="nonzero"/></clipPath><clipPath id="c25e9916a1"><path d="M 207.144531 510.097656 L 290.832031 510.097656 L 290.832031 583.21875 L 207.144531 583.21875 Z M 207.144531 510.097656 " clip-rule="nonzero"/></clipPath><clipPath id="8b116533b7"><path d="M 248.925781 583.21875 L 290.707031 510.097656 L 207.144531 510.097656 Z M 248.925781 583.21875 " clip-rule="nonzero"/></clipPath><clipPath id="38ced56632"><path d="M 332.816406 508.984375 L 416.503906 508.984375 L 416.503906 582.105469 L 332.816406 582.105469 Z M 332.816406 508.984375 " clip-rule="nonzero"/></clipPath><clipPath id="a7a4a746fa"><path d="M 374.71875 508.984375 L 332.9375 582.105469 L 416.503906 582.105469 Z M 374.71875 508.984375 " clip-rule="nonzero"/></clipPath><clipPath id="da3212b5e0"><path d="M 291.8125 435.871094 L 375.5 435.871094 L 375.5 508.992188 L 291.8125 508.992188 Z M 291.8125 435.871094 " clip-rule="nonzero"/></clipPath><clipPath id="e17e2124b6"><path d="M 333.597656 508.992188 L 375.378906 435.871094 L 291.8125 435.871094 Z M 333.597656 508.992188 " clip-rule="nonzero"/></clipPath><clipPath id="3ae4813aff"><path d="M 459.4375 436.972656 L 543.125 436.972656 L 543.125 510.089844 L 459.4375 510.089844 Z M 459.4375 436.972656 " clip-rule="nonzero"/></clipPath><clipPath id="d4d59c7d60"><path d="M 501.34375 436.972656 L 459.558594 510.089844 L 543.125 510.089844 Z M 501.34375 436.972656 " clip-rule="nonzero"/></clipPath><clipPath id="699161de55"><path d="M 417.652344 510.523438 L 501.34375 510.523438 L 501.34375 583.644531 L 417.652344 583.644531 Z M 417.652344 510.523438 " clip-rule="nonzero"/></clipPath><clipPath id="9ca54bee62"><path d="M 459.558594 510.523438 L 417.777344 583.644531 L 501.34375 583.644531 Z M 459.558594 510.523438 " clip-rule="nonzero"/></clipPath><clipPath id="eafaa70c0e"><path d="M 626.089844 436.972656 L 709.777344 436.972656 L 709.777344 510.089844 L 626.089844 510.089844 Z M 626.089844 436.972656 " clip-rule="nonzero"/></clipPath><clipPath id="d5723af337"><path d="M 667.992188 436.972656 L 626.210938 510.089844 L 709.777344 510.089844 Z M 667.992188 436.972656 " clip-rule="nonzero"/></clipPath><clipPath id="86ab412ada"><path d="M 668.328125 510.089844 L 752.015625 510.089844 L 752.015625 583.210938 L 668.328125 583.210938 Z M 668.328125 510.089844 " clip-rule="nonzero"/></clipPath><clipPath id="9824326fe2"><path d="M 710.234375 510.089844 L 668.449219 583.210938 L 752.015625 583.210938 Z M 710.234375 510.089844 " clip-rule="nonzero"/></clipPath><clipPath id="70da844a04"><path d="M 583.527344 365.273438 L 667.214844 365.273438 L 667.214844 438.394531 L 583.527344 438.394531 Z M 583.527344 365.273438 " clip-rule="nonzero"/></clipPath><clipPath id="e4df61628e"><path d="M 625.308594 438.394531 L 667.089844 365.273438 L 583.527344 365.273438 Z M 625.308594 438.394531 " clip-rule="nonzero"/></clipPath><clipPath id="af0384df0d"><path d="M 709.652344 436.972656 L 793.34375 436.972656 L 793.34375 510.089844 L 709.652344 510.089844 Z M 709.652344 436.972656 " clip-rule="nonzero"/></clipPath><clipPath id="b2852255c3"><path d="M 751.558594 436.972656 L 709.777344 510.089844 L 793.34375 510.089844 Z M 751.558594 436.972656 " clip-rule="nonzero"/></clipPath><clipPath id="5eccfb519b"><path d="M 817.3125 509.417969 L 901 509.417969 L 901 582.539062 L 817.3125 582.539062 Z M 817.3125 509.417969 " clip-rule="nonzero"/></clipPath><clipPath id="038a55295d"><path d="M 859.21875 509.417969 L 817.433594 582.539062 L 901 582.539062 Z M 859.21875 509.417969 " clip-rule="nonzero"/></clipPath><clipPath id="7e7efb3f87"><path d="M 794.851562 363.859375 L 878.539062 363.859375 L 878.539062 436.976562 L 794.851562 436.976562 Z M 794.851562 363.859375 " clip-rule="nonzero"/></clipPath><clipPath id="73598d0612"><path d="M 836.636719 436.976562 L 878.417969 363.859375 L 794.851562 363.859375 Z M 836.636719 436.976562 " clip-rule="nonzero"/></clipPath><clipPath id="9fc7296362"><path d="M 165.839844 435.871094 L 249.527344 435.871094 L 249.527344 508.992188 L 165.839844 508.992188 Z M 165.839844 435.871094 " clip-rule="nonzero"/></clipPath><clipPath id="69ca6cf916"><path d="M 207.621094 508.992188 L 249.40625 435.871094 L 165.839844 435.871094 Z M 207.621094 508.992188 " clip-rule="nonzero"/></clipPath><clipPath id="b551a1a787"><path d="M 458.066406 581.648438 L 541.753906 581.648438 L 541.753906 654.769531 L 458.066406 654.769531 Z M 458.066406 581.648438 " clip-rule="nonzero"/></clipPath><clipPath id="098651f7ba"><path d="M 499.972656 581.648438 L 458.1875 654.769531 L 541.753906 654.769531 Z M 499.972656 581.648438 " clip-rule="nonzero"/></clipPath><clipPath id="912a02f12b"><path d="M 224.941406 364.167969 L 308.628906 364.167969 L 308.628906 437.289062 L 224.941406 437.289062 Z M 224.941406 364.167969 " clip-rule="nonzero"/></clipPath><clipPath id="7b7bc70510"><path d="M 266.726562 437.289062 L 308.507812 364.167969 L 224.941406 364.167969 Z M 266.726562 437.289062 " clip-rule="nonzero"/></clipPath><clipPath id="9bbfaec1cf"><path d="M 459.4375 364.8125 L 543.125 364.8125 L 543.125 437.933594 L 459.4375 437.933594 Z M 459.4375 364.8125 " clip-rule="nonzero"/></clipPath><clipPath id="881fe2f142"><path d="M 501.34375 364.8125 L 459.558594 437.933594 L 543.125 437.933594 Z M 501.34375 364.8125 " clip-rule="nonzero"/></clipPath><clipPath id="233fad1309"><path d="M 544.046875 507.429688 L 627.734375 507.429688 L 627.734375 580.546875 L 544.046875 580.546875 Z M 544.046875 507.429688 " clip-rule="nonzero"/></clipPath><clipPath id="d522438829"><path d="M 585.832031 580.546875 L 627.613281 507.429688 L 544.046875 507.429688 Z M 585.832031 580.546875 " clip-rule="nonzero"/></clipPath><clipPath id="b23eb955f4"><path d="M 713.445312 290 L 797.132812 290 L 797.132812 363.121094 L 713.445312 363.121094 Z M 713.445312 290 " clip-rule="nonzero"/></clipPath><clipPath id="32b01226a6"><path d="M 755.230469 363.121094 L 797.011719 290 L 713.445312 290 Z M 755.230469 363.121094 " clip-rule="nonzero"/></clipPath><clipPath id="d67966a695"><path d="M 459.570312 293.117188 L 543.257812 293.117188 L 543.257812 366.234375 L 459.570312 366.234375 Z M 459.570312 293.117188 " clip-rule="nonzero"/></clipPath><clipPath id="5cc679038a"><path d="M 501.351562 366.234375 L 543.136719 293.117188 L 459.570312 293.117188 Z M 501.351562 366.234375 " clip-rule="nonzero"/></clipPath><clipPath id="2b73d36323"><path d="M 543.136719 145.769531 L 626.824219 145.769531 L 626.824219 218.890625 L 543.136719 218.890625 Z M 543.136719 145.769531 " clip-rule="nonzero"/></clipPath><clipPath id="f7fc3cfe2e"><path d="M 584.917969 218.890625 L 626.699219 145.769531 L 543.136719 145.769531 Z M 584.917969 218.890625 " clip-rule="nonzero"/></clipPath><clipPath id="28aedd7577"><path d="M 667.871094 145.765625 L 751.558594 145.765625 L 751.558594 218.882812 L 667.871094 218.882812 Z M 667.871094 145.765625 " clip-rule="nonzero"/></clipPath><clipPath id="e31d35b274"><path d="M 709.777344 145.765625 L 667.992188 218.882812 L 751.558594 218.882812 Z M 709.777344 145.765625 " clip-rule="nonzero"/></clipPath><clipPath id="6188aea3cf"><path d="M 626.089844 218.882812 L 709.777344 218.882812 L 709.777344 292.003906 L 626.089844 292.003906 Z M 626.089844 218.882812 " clip-rule="nonzero"/></clipPath><clipPath id="9152274da6"><path d="M 667.992188 218.882812 L 626.210938 292.003906 L 709.777344 292.003906 Z M 667.992188 218.882812 " clip-rule="nonzero"/></clipPath><clipPath id="53173e7f02"><path d="M 1078.699219 219.988281 L 1162.386719 219.988281 L 1162.386719 293.109375 L 1078.699219 293.109375 Z M 1078.699219 219.988281 " clip-rule="nonzero"/></clipPath><clipPath id="bb7a4cf613"><path d="M 1120.605469 219.988281 L 1078.824219 293.109375 L 1162.386719 293.109375 Z M 1120.605469 219.988281 " clip-rule="nonzero"/></clipPath><clipPath id="8a99aa9379"><path d="M 994.8125 146.875 L 1078.5 146.875 L 1078.5 219.996094 L 994.8125 219.996094 Z M 994.8125 146.875 " clip-rule="nonzero"/></clipPath><clipPath id="b1a6c88ceb"><path d="M 1036.59375 219.996094 L 1078.375 146.875 L 994.8125 146.875 Z M 1036.59375 219.996094 " clip-rule="nonzero"/></clipPath><clipPath id="3eafebcb0e"><path d="M 1163 143.753906 L 1246.679688 143.753906 L 1246.679688 216.875 L 1163 216.875 Z M 1163 143.753906 " clip-rule="nonzero"/></clipPath><clipPath id="8fc5512672"><path d="M 1204.898438 143.753906 L 1163.117188 216.875 L 1246.679688 216.875 Z M 1204.898438 143.753906 " clip-rule="nonzero"/></clipPath><clipPath id="253552edc7"><path d="M 836.277344 146.871094 L 919.964844 146.871094 L 919.964844 219.988281 L 836.277344 219.988281 Z M 836.277344 146.871094 " clip-rule="nonzero"/></clipPath><clipPath id="1d28309bf8"><path d="M 878.179688 146.871094 L 836.398438 219.988281 L 919.964844 219.988281 Z M 878.179688 146.871094 " clip-rule="nonzero"/></clipPath><clipPath id="e799faa1b8"><path d="M 953 216.875 L 1036.582031 216.875 L 1036.582031 289.992188 L 953 289.992188 Z M 953 216.875 " clip-rule="nonzero"/></clipPath><clipPath id="fd8881aac8"><path d="M 994.800781 216.875 L 953.019531 289.992188 L 1036.582031 289.992188 Z M 994.800781 216.875 " clip-rule="nonzero"/></clipPath><clipPath id="25d6b05e88"><path d="M 499.847656 654.769531 L 583.539062 654.769531 L 583.539062 727.886719 L 499.847656 727.886719 Z M 499.847656 654.769531 " clip-rule="nonzero"/></clipPath><clipPath id="d0f4d48ef5"><path d="M 541.753906 654.769531 L 499.972656 727.886719 L 583.539062 727.886719 Z M 541.753906 654.769531 " clip-rule="nonzero"/></clipPath><clipPath id="397a7cb6d7"><path d="M 1036.59375 433.570312 L 1120.28125 433.570312 L 1120.28125 506.6875 L 1036.59375 506.6875 Z M 1036.59375 433.570312 " clip-rule="nonzero"/></clipPath><clipPath id="d3f8627d89"><path d="M 1078.375 506.691406 L 1120.160156 433.570312 L 1036.59375 433.570312 Z M 1078.375 506.691406 " clip-rule="nonzero"/></clipPath><clipPath id="30f3c00c5c"><path d="M 920.199219 364.820312 L 1003.886719 364.820312 L 1003.886719 437.9375 L 920.199219 437.9375 Z M 920.199219 364.820312 " clip-rule="nonzero"/></clipPath><clipPath id="0ba40f0b0b"><path d="M 961.984375 437.9375 L 1003.765625 364.820312 L 920.199219 364.820312 Z M 961.984375 437.9375 " clip-rule="nonzero"/></clipPath><clipPath id="04d96219f4"><path d="M 1156.539062 360.445312 L 1240.226562 360.445312 L 1240.226562 433.5625 L 1156.539062 433.5625 Z M 1156.539062 360.445312 " clip-rule="nonzero"/></clipPath><clipPath id="221594501b"><path d="M 1198.441406 360.445312 L 1156.660156 433.5625 L 1240.226562 433.5625 Z M 1198.441406 360.445312 " clip-rule="nonzero"/></clipPath><clipPath id="b39a68f99b"><path d="M 1275.300781 80.992188 L 1358.988281 80.992188 L 1358.988281 154.113281 L 1275.300781 154.113281 Z M 1275.300781 80.992188 " clip-rule="nonzero"/></clipPath><clipPath id="293728ec04"><path d="M 1317.207031 80.992188 L 1275.425781 154.113281 L 1358.988281 154.113281 Z M 1317.207031 80.992188 " clip-rule="nonzero"/></clipPath><clipPath id="27ef7664d4"><path d="M 794.71875 436.296875 L 878.40625 436.296875 L 878.40625 509.417969 L 794.71875 509.417969 Z M 794.71875 436.296875 " clip-rule="nonzero"/></clipPath><clipPath id="00def49115"><path d="M 836.625 436.296875 L 794.84375 509.417969 L 878.40625 509.417969 Z M 836.625 436.296875 " clip-rule="nonzero"/></clipPath></defs><g clip-path="url(#d7520867d4)"><g clip-path="url(#fa1838b4cb)"><path fill="#d5e7e5" d="M 206.699219 653.660156 L 123.011719 653.660156 L 123.011719 580.542969 L 206.699219 580.542969 Z M 206.699219 653.660156 " fill-opacity="1" fill-rule="nonzero"/></g></g><g clip-path="url(#5373c4a615)"><g clip-path="url(#8ed1cbe87f)"><path fill="#83b6b3" d="M 123.144531 653.667969 L 206.832031 653.667969 L 206.832031 726.789062 L 123.144531 726.789062 Z M 123.144531 653.667969 " fill-opacity="1" fill-rule="nonzero"/></g></g><g clip-path="url(#9ef348a4dc)"><g clip-path="url(#b040fd0e6b)"><path fill="#066d66" d="M 164.914062 727.214844 L 81.226562 727.214844 L 81.226562 654.09375 L 164.914062 654.09375 Z M 164.914062 727.214844 " fill-opacity="1" fill-rule="nonzero"/></g></g><g clip-path="url(#081fd555fa)"><g clip-path="url(#0d8cf5d01d)"><path fill="#308580" d="M 164.925781 580.546875 L 248.613281 580.546875 L 248.613281 653.667969 L 164.925781 653.667969 Z M 164.925781 580.546875 " fill-opacity="1" fill-rule="nonzero"/></g></g><g clip-path="url(#499406aa20)"><g clip-path="url(#896c354bb4)"><path fill="#599e99" d="M 81 581.65625 L 164.6875 581.65625 L 164.6875 654.773438 L 81 654.773438 Z M 81 581.65625 " fill-opacity="1" fill-rule="nonzero"/></g></g><g clip-path="url(#c2da9444b5)"><g clip-path="url(#dd7a771a6f)"><path fill="#accecc" d="M 248.480469 726.78125 L 164.792969 726.78125 L 164.792969 653.660156 L 248.480469 653.660156 Z M 248.480469 726.78125 " fill-opacity="1" fill-rule="nonzero"/></g></g><g clip-path="url(#90563d9018)"><g clip-path="url(#9f9b7e10bf)"><path fill="#d5e7e5" d="M 206.230469 654.773438 L 289.917969 654.773438 L 289.917969 727.894531 L 206.230469 727.894531 Z M 206.230469 654.773438 " fill-opacity="1" fill-rule="nonzero"/></g></g><g clip-path="url(#dea5ed26f0)"><g clip-path="url(#e7ca2e22f6)"><path fill="#83b6b3" d="M 373.351562 653.660156 L 289.664062 653.660156 L 289.664062 580.542969 L 373.351562 580.542969 Z M 373.351562 653.660156 " fill-opacity="1" fill-rule="nonzero"/></g></g><g clip-path="url(#d7bf438031)"><g clip-path="url(#ebd0111b50)"><path fill="#308580" d="M 331.566406 726.78125 L 247.878906 726.78125 L 247.878906 653.660156 L 331.566406 653.660156 Z M 331.566406 726.78125 " fill-opacity="1" fill-rule="nonzero"/></g></g><g clip-path="url(#b3ba113acb)"><g clip-path="url(#5c94348128)"><path fill="#599e99" d="M 415.589844 726.78125 L 331.902344 726.78125 L 331.902344 653.660156 L 415.589844 653.660156 Z M 415.589844 726.78125 " fill-opacity="1" fill-rule="nonzero"/></g></g><g clip-path="url(#742b6e40bd)"><g clip-path="url(#727b0acdc1)"><path fill="#accecc" d="M 248.011719 580.546875 L 331.699219 580.546875 L 331.699219 653.667969 L 248.011719 653.667969 Z M 248.011719 580.546875 " fill-opacity="1" fill-rule="nonzero"/></g></g><g clip-path="url(#c1715b5688)"><g clip-path="url(#97291069b3)"><path fill="#066d66" d="M 499.972656 728.320312 L 416.285156 728.320312 L 416.285156 655.199219 L 499.972656 655.199219 Z M 499.972656 728.320312 " fill-opacity="1" fill-rule="nonzero"/></g></g><g clip-path="url(#8229034cf5)"><g clip-path="url(#54acd16950)"><path fill="#d5e7e5" d="M 541.285156 655.878906 L 624.972656 655.878906 L 624.972656 729 L 541.285156 729 Z M 541.285156 655.878906 " fill-opacity="1" fill-rule="nonzero"/></g></g><g clip-path="url(#a67b7b52ca)"><g clip-path="url(#7588d0e609)"><path fill="#83b6b3" d="M 708.40625 654.769531 L 624.71875 654.769531 L 624.71875 581.648438 L 708.40625 581.648438 Z M 708.40625 654.769531 " fill-opacity="1" fill-rule="nonzero"/></g></g><g clip-path="url(#1dfe84c346)"><g clip-path="url(#09e6a3e6da)"><path fill="#308580" d="M 666.625 727.886719 L 582.9375 727.886719 L 582.9375 654.769531 L 666.625 654.769531 Z M 666.625 727.886719 " fill-opacity="1" fill-rule="nonzero"/></g></g><g clip-path="url(#d3b4445cff)"><g clip-path="url(#da73dcd362)"><path fill="#599e99" d="M 750.644531 727.886719 L 666.957031 727.886719 L 666.957031 654.769531 L 750.644531 654.769531 Z M 750.644531 727.886719 " fill-opacity="1" fill-rule="nonzero"/></g></g><g clip-path="url(#37d52849fa)"><g clip-path="url(#388d04c786)"><path fill="#accecc" d="M 583.070312 581.65625 L 666.757812 581.65625 L 666.757812 654.773438 L 583.070312 654.773438 Z M 583.070312 581.65625 " fill-opacity="1" fill-rule="nonzero"/></g></g><g clip-path="url(#8b1a9c4d89)"><g clip-path="url(#bbc9e53341)"><path fill="#accecc" d="M 830.183594 727.582031 L 746.496094 727.582031 L 746.496094 654.460938 L 830.183594 654.460938 Z M 830.183594 727.582031 " fill-opacity="1" fill-rule="nonzero"/></g></g><g clip-path="url(#3a3827e3ba)"><g clip-path="url(#968fba3b20)"><path fill="#83b6b3" d="M 124.054688 508.992188 L 207.746094 508.992188 L 207.746094 582.109375 L 124.054688 582.109375 Z M 124.054688 508.992188 " fill-opacity="1" fill-rule="nonzero"/></g></g><g clip-path="url(#c25e9916a1)"><g clip-path="url(#8b116533b7)"><path fill="#d5e7e5" d="M 207.144531 510.097656 L 290.832031 510.097656 L 290.832031 583.21875 L 207.144531 583.21875 Z M 207.144531 510.097656 " fill-opacity="1" fill-rule="nonzero"/></g></g><g clip-path="url(#38ced56632)"><g clip-path="url(#a7a4a746fa)"><path fill="#599e99" d="M 416.503906 582.105469 L 332.816406 582.105469 L 332.816406 508.984375 L 416.503906 508.984375 Z M 416.503906 582.105469 " fill-opacity="1" fill-rule="nonzero"/></g></g><g clip-path="url(#da3212b5e0)"><g clip-path="url(#e17e2124b6)"><path fill="#accecc" d="M 291.8125 435.871094 L 375.5 435.871094 L 375.5 508.992188 L 291.8125 508.992188 Z M 291.8125 435.871094 " fill-opacity="1" fill-rule="nonzero"/></g></g><g clip-path="url(#3ae4813aff)"><g clip-path="url(#d4d59c7d60)"><path fill="#d5e7e5" d="M 543.125 510.089844 L 459.4375 510.089844 L 459.4375 436.972656 L 543.125 436.972656 Z M 543.125 510.089844 " fill-opacity="1" fill-rule="nonzero"/></g></g><g clip-path="url(#699161de55)"><g clip-path="url(#9ca54bee62)"><path fill="#066d66" d="M 501.34375 583.644531 L 417.652344 583.644531 L 417.652344 510.523438 L 501.34375 510.523438 Z M 501.34375 583.644531 " fill-opacity="1" fill-rule="nonzero"/></g></g><g clip-path="url(#eafaa70c0e)"><g clip-path="url(#d5723af337)"><path fill="#83b6b3" d="M 709.777344 510.089844 L 626.089844 510.089844 L 626.089844 436.972656 L 709.777344 436.972656 Z M 709.777344 510.089844 " fill-opacity="1" fill-rule="nonzero"/></g></g><g clip-path="url(#86ab412ada)"><g clip-path="url(#9824326fe2)"><path fill="#599e99" d="M 752.015625 583.210938 L 668.328125 583.210938 L 668.328125 510.089844 L 752.015625 510.089844 Z M 752.015625 583.210938 " fill-opacity="1" fill-rule="nonzero"/></g></g><g clip-path="url(#70da844a04)"><g clip-path="url(#e4df61628e)"><path fill="#accecc" d="M 583.527344 365.273438 L 667.214844 365.273438 L 667.214844 438.394531 L 583.527344 438.394531 Z M 583.527344 365.273438 " fill-opacity="1" fill-rule="nonzero"/></g></g><g clip-path="url(#af0384df0d)"><g clip-path="url(#b2852255c3)"><path fill="#accecc" d="M 793.34375 510.089844 L 709.652344 510.089844 L 709.652344 436.972656 L 793.34375 436.972656 Z M 793.34375 510.089844 " fill-opacity="1" fill-rule="nonzero"/></g></g><g clip-path="url(#5eccfb519b)"><g clip-path="url(#038a55295d)"><path fill="#066d66" d="M 901 582.539062 L 817.3125 582.539062 L 817.3125 509.417969 L 901 509.417969 Z M 901 582.539062 " fill-opacity="1" fill-rule="nonzero"/></g></g><g clip-path="url(#7e7efb3f87)"><g clip-path="url(#73598d0612)"><path fill="#d5e7e5" d="M 794.851562 363.859375 L 878.539062 363.859375 L 878.539062 436.976562 L 794.851562 436.976562 Z M 794.851562 363.859375 " fill-opacity="1" fill-rule="nonzero"/></g></g><g clip-path="url(#9fc7296362)"><g clip-path="url(#69ca6cf916)"><path fill="#308580" d="M 165.839844 435.871094 L 249.527344 435.871094 L 249.527344 508.992188 L 165.839844 508.992188 Z M 165.839844 435.871094 " fill-opacity="1" fill-rule="nonzero"/></g></g><g clip-path="url(#b551a1a787)"><g clip-path="url(#098651f7ba)"><path fill="#d5e7e5" d="M 541.753906 654.769531 L 458.066406 654.769531 L 458.066406 581.648438 L 541.753906 581.648438 Z M 541.753906 654.769531 " fill-opacity="1" fill-rule="nonzero"/></g></g><g clip-path="url(#912a02f12b)"><g clip-path="url(#7b7bc70510)"><path fill="#d5e7e5" d="M 224.941406 364.167969 L 308.628906 364.167969 L 308.628906 437.289062 L 224.941406 437.289062 Z M 224.941406 364.167969 " fill-opacity="1" fill-rule="nonzero"/></g></g><g clip-path="url(#9bbfaec1cf)"><g clip-path="url(#881fe2f142)"><path fill="#308580" d="M 543.125 437.933594 L 459.4375 437.933594 L 459.4375 364.8125 L 543.125 364.8125 Z M 543.125 437.933594 " fill-opacity="1" fill-rule="nonzero"/></g></g><g clip-path="url(#233fad1309)"><g clip-path="url(#d522438829)"><path fill="#accecc" d="M 544.046875 507.429688 L 627.734375 507.429688 L 627.734375 580.546875 L 544.046875 580.546875 Z M 544.046875 507.429688 " fill-opacity="1" fill-rule="nonzero"/></g></g><g clip-path="url(#b23eb955f4)"><g clip-path="url(#32b01226a6)"><path fill="#599e99" d="M 713.445312 290 L 797.132812 290 L 797.132812 363.121094 L 713.445312 363.121094 Z M 713.445312 290 " fill-opacity="1" fill-rule="nonzero"/></g></g><g clip-path="url(#d67966a695)"><g clip-path="url(#5cc679038a)"><path fill="#83b6b3" d="M 459.570312 293.117188 L 543.257812 293.117188 L 543.257812 366.234375 L 459.570312 366.234375 Z M 459.570312 293.117188 " fill-opacity="1" fill-rule="nonzero"/></g></g><g clip-path="url(#2b73d36323)"><g clip-path="url(#f7fc3cfe2e)"><path fill="#308580" d="M 543.136719 145.769531 L 626.824219 145.769531 L 626.824219 218.890625 L 543.136719 218.890625 Z M 543.136719 145.769531 " fill-opacity="1" fill-rule="nonzero"/></g></g><g clip-path="url(#28aedd7577)"><g clip-path="url(#e31d35b274)"><path fill="#83b6b3" d="M 751.558594 218.882812 L 667.871094 218.882812 L 667.871094 145.765625 L 751.558594 145.765625 Z M 751.558594 218.882812 " fill-opacity="1" fill-rule="nonzero"/></g></g><g clip-path="url(#6188aea3cf)"><g clip-path="url(#9152274da6)"><path fill="#d5e7e5" d="M 709.777344 292.003906 L 626.089844 292.003906 L 626.089844 218.882812 L 709.777344 218.882812 Z M 709.777344 292.003906 " fill-opacity="1" fill-rule="nonzero"/></g></g><g clip-path="url(#53173e7f02)"><g clip-path="url(#bb7a4cf613)"><path fill="#599e99" d="M 1162.386719 293.109375 L 1078.699219 293.109375 L 1078.699219 219.988281 L 1162.386719 219.988281 Z M 1162.386719 293.109375 " fill-opacity="1" fill-rule="nonzero"/></g></g><g clip-path="url(#8a99aa9379)"><g clip-path="url(#b1a6c88ceb)"><path fill="#accecc" d="M 994.8125 146.875 L 1078.5 146.875 L 1078.5 219.996094 L 994.8125 219.996094 Z M 994.8125 146.875 " fill-opacity="1" fill-rule="nonzero"/></g></g><g clip-path="url(#3eafebcb0e)"><g clip-path="url(#8fc5512672)"><path fill="#accecc" d="M 1246.679688 216.875 L 1162.992188 216.875 L 1162.992188 143.753906 L 1246.679688 143.753906 Z M 1246.679688 216.875 " fill-opacity="1" fill-rule="nonzero"/></g></g><g clip-path="url(#253552edc7)"><g clip-path="url(#1d28309bf8)"><path fill="#d5e7e5" d="M 919.964844 219.988281 L 836.277344 219.988281 L 836.277344 146.871094 L 919.964844 146.871094 Z M 919.964844 219.988281 " fill-opacity="1" fill-rule="nonzero"/></g></g><g clip-path="url(#e799faa1b8)"><g clip-path="url(#fd8881aac8)"><path fill="#e1f5f3" d="M 1036.582031 289.992188 L 952.894531 289.992188 L 952.894531 216.875 L 1036.582031 216.875 Z M 1036.582031 289.992188 " fill-opacity="1" fill-rule="nonzero"/></g></g><g clip-path="url(#25d6b05e88)"><g clip-path="url(#d0f4d48ef5)"><path fill="#accecc" d="M 583.539062 727.886719 L 499.847656 727.886719 L 499.847656 654.769531 L 583.539062 654.769531 Z M 583.539062 727.886719 " fill-opacity="1" fill-rule="nonzero"/></g></g><g clip-path="url(#397a7cb6d7)"><g clip-path="url(#d3f8627d89)"><path fill="#d5e7e5" d="M 1036.59375 433.570312 L 1120.28125 433.570312 L 1120.28125 506.691406 L 1036.59375 506.691406 Z M 1036.59375 433.570312 " fill-opacity="1" fill-rule="nonzero"/></g></g><g clip-path="url(#30f3c00c5c)"><g clip-path="url(#0ba40f0b0b)"><path fill="#599e99" d="M 920.199219 364.820312 L 1003.886719 364.820312 L 1003.886719 437.9375 L 920.199219 437.9375 Z M 920.199219 364.820312 " fill-opacity="1" fill-rule="nonzero"/></g></g><g clip-path="url(#04d96219f4)"><g clip-path="url(#221594501b)"><path fill="#066d66" d="M 1240.226562 433.5625 L 1156.539062 433.5625 L 1156.539062 360.445312 L 1240.226562 360.445312 Z M 1240.226562 433.5625 " fill-opacity="1" fill-rule="nonzero"/></g></g><g clip-path="url(#b39a68f99b)"><g clip-path="url(#293728ec04)"><path fill="#e1f5f3" d="M 1358.988281 154.113281 L 1275.300781 154.113281 L 1275.300781 80.992188 L 1358.988281 80.992188 Z M 1358.988281 154.113281 " fill-opacity="1" fill-rule="nonzero"/></g></g><g clip-path="url(#27ef7664d4)"><g clip-path="url(#00def49115)"><path fill="#e1f5f3" d="M 878.40625 509.417969 L 794.71875 509.417969 L 794.71875 436.296875 L 878.40625 436.296875 Z M 878.40625 509.417969 " fill-opacity="1" fill-rule="nonzero"/></g></g></svg>